<svg width="258" height="400" viewBox="0 0 258 400" fill="none" xmlns="http://www.w3.org/2000/svg">
<path d="M19.2178 294.626C35.1461 336.351 68.4753 355.608 83.5669 360.958C119.471 373.697 138.792 370.201 162.678 367.958C182.659 366.096 203.277 354.112 230.997 356.807C231.14 356.82 231.283 356.833 231.426 356.846C231.57 356.859 231.713 356.872 231.856 356.885C259.604 359.237 277.12 374.697 296.273 380.138C319.166 386.645 337.307 393.556 375.336 387.558C391.32 385.041 428.291 372.193 453.26 334.197C487.668 281.846 464.233 235.586 454.738 138.703C445.85 48.8298 458.662 -8.51431 432.092 -53.8217C405.522 -99.1291 362.009 -125.901 288.242 -134.01C287.867 -134.044 287.483 -134.09 287.11 -134.135C286.736 -134.17 286.349 -134.194 285.973 -134.217C211.894 -139.575 163.273 -121.215 127.064 -81.6307C90.8668 -42.0457 90.5424 16.4368 61.6596 102.867C30.5964 196.063 -2.73289 237.137 19.2178 294.626Z" fill="#F08787"/>
</svg>
