<svg width="20" height="21" viewBox="0 0 20 21" fill="none" xmlns="http://www.w3.org/2000/svg">
<path d="M19.0068 9.12402H17.9368C17.7136 7.364 16.9117 5.7281 15.6572 4.47361C14.4028 3.21912 12.7669 2.41722 11.0068 2.19402V1.12402C11.0068 0.858807 10.9015 0.604453 10.7139 0.416917C10.5264 0.22938 10.2721 0.124023 10.0068 0.124023C9.74162 0.124023 9.48727 0.22938 9.29973 0.416917C9.11219 0.604453 9.00684 0.858807 9.00684 1.12402V2.19402C7.24681 2.41722 5.61091 3.21912 4.35642 4.47361C3.10193 5.7281 2.30003 7.364 2.07684 9.12402H1.00684C0.741619 9.12402 0.487265 9.22938 0.299729 9.41692C0.112193 9.60445 0.00683594 9.85881 0.00683594 10.124C0.00683594 10.3892 0.112193 10.6436 0.299729 10.8311C0.487265 11.0187 0.741619 11.124 1.00684 11.124H2.07684C2.30003 12.884 3.10193 14.5199 4.35642 15.7744C5.61091 17.0289 7.24681 17.8308 9.00684 18.054V19.124C9.00684 19.3892 9.11219 19.6436 9.29973 19.8311C9.48727 20.0187 9.74162 20.124 10.0068 20.124C10.2721 20.124 10.5264 20.0187 10.7139 19.8311C10.9015 19.6436 11.0068 19.3892 11.0068 19.124V18.054C12.7669 17.8308 14.4028 17.0289 15.6572 15.7744C16.9117 14.5199 17.7136 12.884 17.9368 11.124H19.0068C19.2721 11.124 19.5264 11.0187 19.7139 10.8311C19.9015 10.6436 20.0068 10.3892 20.0068 10.124C20.0068 9.85881 19.9015 9.60445 19.7139 9.41692C19.5264 9.22938 19.2721 9.12402 19.0068 9.12402ZM10.0068 16.124C8.82015 16.124 7.66011 15.7721 6.67341 15.1128C5.68672 14.4536 4.91768 13.5165 4.46356 12.4201C4.00943 11.3238 3.89061 10.1174 4.12212 8.95348C4.35364 7.7896 4.92508 6.7205 5.7642 5.88138C6.60331 5.04227 7.67241 4.47082 8.83629 4.23931C10.0002 4.0078 11.2066 4.12662 12.3029 4.58075C13.3993 5.03487 14.3364 5.80391 14.9957 6.7906C15.6549 7.7773 16.0068 8.93734 16.0068 10.124C16.0068 11.7153 15.3747 13.2414 14.2495 14.3667C13.1243 15.4919 11.5981 16.124 10.0068 16.124ZM10.0068 7.12402C9.41349 7.12402 8.83347 7.29997 8.34013 7.62961C7.84678 7.95926 7.46226 8.42779 7.2352 8.97597C7.00813 9.52415 6.94872 10.1274 7.06448 10.7093C7.18024 11.2912 7.46596 11.8258 7.88552 12.2453C8.30507 12.6649 8.83962 12.9506 9.42157 13.0664C10.0035 13.1821 10.6067 13.1227 11.1549 12.8957C11.7031 12.6686 12.1716 12.2841 12.5012 11.7907C12.8309 11.2974 13.0068 10.7174 13.0068 10.124C13.0068 9.32837 12.6908 8.56531 12.1282 8.0027C11.5655 7.44009 10.8025 7.12402 10.0068 7.12402ZM10.0068 11.124C9.80905 11.124 9.61571 11.0654 9.45127 10.9555C9.28682 10.8456 9.15864 10.6894 9.08296 10.5067C9.00727 10.324 8.98747 10.1229 9.02605 9.92893C9.06464 9.73495 9.15988 9.55677 9.29973 9.41692C9.43958 9.27706 9.61776 9.18182 9.81175 9.14324C10.0057 9.10465 10.2068 9.12446 10.3895 9.20014C10.5722 9.27583 10.7284 9.404 10.8383 9.56845C10.9482 9.7329 11.0068 9.92624 11.0068 10.124C11.0068 10.3892 10.9015 10.6436 10.7139 10.8311C10.5264 11.0187 10.2721 11.124 10.0068 11.124Z" fill="white"/>
</svg>
