<svg width="20" height="21" viewBox="0 0 20 21" fill="none" xmlns="http://www.w3.org/2000/svg">
<path d="M19.3268 7.67403L17.4368 7.04403L18.3268 5.26403C18.4171 5.07771 18.4472 4.86799 18.4132 4.6638C18.3792 4.45961 18.2826 4.27101 18.1368 4.12403L16.0068 1.99403C15.8591 1.84611 15.6687 1.74823 15.4624 1.71415C15.2561 1.68007 15.0443 1.7115 14.8568 1.80403L13.0768 2.69403L12.4468 0.804027C12.3803 0.607019 12.254 0.435652 12.0855 0.313775C11.9171 0.191897 11.7148 0.125571 11.5068 0.124027H8.50684C8.2972 0.123486 8.09268 0.188846 7.92221 0.310869C7.75174 0.432892 7.62392 0.605406 7.55684 0.804027L6.92684 2.69403L5.14684 1.80403C4.96053 1.71381 4.7508 1.68363 4.54661 1.71766C4.34242 1.75169 4.15382 1.84826 4.00684 1.99403L1.87684 4.12403C1.72893 4.27179 1.63105 4.4622 1.59696 4.66848C1.56288 4.87476 1.59432 5.08654 1.68684 5.27403L2.57684 7.05403L0.686839 7.68403C0.489832 7.75056 0.318465 7.87686 0.196587 8.04533C0.0747097 8.21381 0.00838361 8.41609 0.00683927 8.62403V11.624C0.00629811 11.8337 0.0716582 12.0382 0.193681 12.2087C0.315704 12.3791 0.488218 12.5069 0.686839 12.574L2.57684 13.204L1.68684 14.984C1.59662 15.1703 1.56644 15.3801 1.60048 15.5843C1.63451 15.7884 1.73107 15.977 1.87684 16.124L4.00684 18.254C4.1546 18.4019 4.34501 18.4998 4.55129 18.5339C4.75758 18.568 4.96935 18.5366 5.15684 18.444L6.93684 17.554L7.56684 19.444C7.63393 19.6426 7.76174 19.8152 7.93221 19.9372C8.10268 20.0592 8.3072 20.1246 8.51684 20.124H11.5168C11.7265 20.1246 11.931 20.0592 12.1015 19.9372C12.2719 19.8152 12.3998 19.6426 12.4668 19.444L13.0968 17.554L14.8768 18.444C15.062 18.532 15.2696 18.5609 15.4718 18.5269C15.6739 18.4929 15.8607 18.3977 16.0068 18.254L18.1368 16.124C18.2848 15.9763 18.3826 15.7859 18.4167 15.5796C18.4508 15.3733 18.4194 15.1615 18.3268 14.974L17.4368 13.194L19.3268 12.564C19.5238 12.4975 19.6952 12.3712 19.8171 12.2027C19.939 12.0342 20.0053 11.832 20.0068 11.624V8.62403C20.0074 8.41438 19.942 8.20987 19.82 8.0394C19.698 7.86892 19.5255 7.74111 19.3268 7.67403ZM18.0068 10.904L16.8068 11.304C16.5309 11.3935 16.2777 11.542 16.0649 11.7391C15.8521 11.9363 15.6847 12.1773 15.5743 12.4456C15.4639 12.7139 15.4133 13.003 15.4258 13.2928C15.4383 13.5826 15.5137 13.8663 15.6468 14.124L16.2168 15.264L15.1168 16.364L14.0068 15.764C13.7504 15.6363 13.4695 15.5651 13.1832 15.5553C12.8968 15.5456 12.6117 15.5974 12.3472 15.7074C12.0826 15.8174 11.8448 15.983 11.6498 16.1929C11.4547 16.4028 11.3071 16.6521 11.2168 16.924L10.8168 18.124H9.22684L8.82684 16.924C8.73733 16.6481 8.58886 16.3949 8.39174 16.1821C8.19461 15.9693 7.95355 15.8018 7.68526 15.6915C7.41697 15.5811 7.12789 15.5305 6.83806 15.543C6.54824 15.5555 6.2646 15.6309 6.00684 15.764L4.86684 16.334L3.76684 15.234L4.36684 14.124C4.49993 13.8663 4.57536 13.5826 4.58788 13.2928C4.60041 13.003 4.54974 12.7139 4.43938 12.4456C4.32902 12.1773 4.16162 11.9363 3.94878 11.7391C3.73595 11.542 3.48278 11.3935 3.20684 11.304L2.00684 10.904V9.34403L3.20684 8.94403C3.48278 8.85452 3.73595 8.70605 3.94878 8.50893C4.16162 8.3118 4.32902 8.07073 4.43938 7.80245C4.54974 7.53416 4.60041 7.24508 4.58788 6.95525C4.57536 6.66542 4.49993 6.38179 4.36684 6.12403L3.79684 5.01403L4.89684 3.91403L6.00684 4.48403C6.2646 4.61712 6.54824 4.69255 6.83806 4.70507C7.12789 4.7176 7.41697 4.66692 7.68526 4.55657C7.95355 4.44621 8.19461 4.2788 8.39174 4.06597C8.58886 3.85314 8.73733 3.59997 8.82684 3.32403L9.22684 2.12403H10.7868L11.1868 3.32403C11.2763 3.59997 11.4248 3.85314 11.6219 4.06597C11.8191 4.2788 12.0601 4.44621 12.3284 4.55657C12.5967 4.66692 12.8858 4.7176 13.1756 4.70507C13.4654 4.69255 13.7491 4.61712 14.0068 4.48403L15.1468 3.91403L16.2468 5.01403L15.6468 6.12403C15.5191 6.38047 15.4479 6.66137 15.4381 6.94772C15.4284 7.23406 15.4802 7.51916 15.5902 7.78371C15.7002 8.04826 15.8658 8.28609 16.0757 8.48111C16.2856 8.67612 16.5349 8.82376 16.8068 8.91403L18.0068 9.31403V10.904ZM10.0068 6.12403C9.21571 6.12403 8.44236 6.35862 7.78456 6.79815C7.12676 7.23767 6.61407 7.86239 6.31132 8.59329C6.00857 9.3242 5.92936 10.1285 6.0837 10.9044C6.23804 11.6803 6.619 12.393 7.17841 12.9525C7.73782 13.5119 8.45055 13.8928 9.22648 14.0472C10.0024 14.2015 10.8067 14.1223 11.5376 13.8195C12.2685 13.5168 12.8932 13.0041 13.3327 12.3463C13.7722 11.6885 14.0068 10.9152 14.0068 10.124C14.0068 9.06316 13.5854 8.04574 12.8353 7.2956C12.0851 6.54545 11.0677 6.12403 10.0068 6.12403V6.12403ZM10.0068 12.124C9.61128 12.124 9.2246 12.0067 8.8957 11.787C8.5668 11.5672 8.31045 11.2548 8.15908 10.8894C8.0077 10.5239 7.9681 10.1218 8.04527 9.73385C8.12244 9.34588 8.31292 8.98952 8.59263 8.70981C8.87233 8.43011 9.2287 8.23963 9.61666 8.16246C10.0046 8.08529 10.4068 8.12489 10.7722 8.27627C11.1377 8.42764 11.45 8.68399 11.6698 9.01289C11.8895 9.34178 12.0068 9.72846 12.0068 10.124C12.0068 10.6545 11.7961 11.1632 11.4211 11.5382C11.046 11.9133 10.5373 12.124 10.0068 12.124Z" fill="white"/>
</svg>
