<svg width="20" height="21" viewBox="0 0 20 21" fill="none" xmlns="http://www.w3.org/2000/svg">
<path d="M19.32 8.00191L17.43 7.37191L18.32 5.59191C18.4102 5.40559 18.4404 5.19587 18.4064 4.99168C18.3723 4.78749 18.2758 4.59889 18.13 4.45191L16 2.32191C15.8522 2.17399 15.6618 2.07611 15.4555 2.04203C15.2493 2.00795 15.0375 2.03938 14.85 2.13191L13.07 3.02191L12.44 1.13191C12.3735 0.9349 12.2472 0.763533 12.0787 0.641656C11.9102 0.519778 11.7079 0.453452 11.5 0.451908H8.5C8.29036 0.451366 8.08585 0.516727 7.91537 0.63875C7.7449 0.760773 7.61709 0.933287 7.55 1.13191L6.92 3.02191L5.14 2.13191C4.95369 2.04169 4.74397 2.01151 4.53978 2.04554C4.33558 2.07958 4.14699 2.17614 4 2.32191L1.87 4.45191C1.72209 4.59967 1.62421 4.79008 1.59013 4.99636C1.55605 5.20264 1.58748 5.41442 1.68 5.60191L2.57 7.38191L0.680003 8.01191C0.482996 8.07844 0.311629 8.20474 0.189751 8.37321C0.0678737 8.54169 0.00154767 8.74397 3.33354e-06 8.95191V11.9519C-0.000537828 12.1616 0.0648223 12.3661 0.186845 12.5365C0.308868 12.707 0.481382 12.8348 0.680003 12.9019L2.57 13.5319L1.68 15.3119C1.58978 15.4982 1.55961 15.7079 1.59364 15.9121C1.62767 16.1163 1.72423 16.3049 1.87 16.4519L4 18.5819C4.14777 18.7298 4.33818 18.8277 4.54446 18.8618C4.75074 18.8959 4.96251 18.8644 5.15 18.7719L6.93 17.8819L7.56 19.7719C7.62709 19.9705 7.7549 20.143 7.92537 20.2651C8.09585 20.3871 8.30036 20.4524 8.51 20.4519H11.51C11.7196 20.4524 11.9242 20.3871 12.0946 20.2651C12.2651 20.143 12.3929 19.9705 12.46 19.7719L13.09 17.8819L14.87 18.7719C15.0551 18.8599 15.2628 18.8888 15.4649 18.8548C15.667 18.8208 15.8538 18.7256 16 18.5819L18.13 16.4519C18.2779 16.3041 18.3758 16.1137 18.4099 15.9075C18.444 15.7012 18.4125 15.4894 18.32 15.3019L17.43 13.5219L19.32 12.8919C19.517 12.8254 19.6884 12.6991 19.8103 12.5306C19.9321 12.3621 19.9985 12.1598 20 11.9519V8.95191C20.0005 8.74226 19.9352 8.53775 19.8132 8.36728C19.6911 8.19681 19.5186 8.06899 19.32 8.00191ZM18 11.2319L16.8 11.6319C16.5241 11.7214 16.2709 11.8699 16.0581 12.067C15.8452 12.2641 15.6778 12.5052 15.5675 12.7735C15.4571 13.0418 15.4064 13.3309 15.419 13.6207C15.4315 13.9105 15.5069 14.1941 15.64 14.4519L16.21 15.5919L15.11 16.6919L14 16.0919C13.7436 15.9641 13.4627 15.893 13.1763 15.8832C12.89 15.8734 12.6049 15.9253 12.3403 16.0353C12.0758 16.1453 11.8379 16.3108 11.6429 16.5207C11.4479 16.7306 11.3003 16.98 11.21 17.2519L10.81 18.4519H9.22L8.82 17.2519C8.73049 16.976 8.58203 16.7228 8.3849 16.51C8.18778 16.2971 7.94671 16.1297 7.67842 16.0194C7.41014 15.909 7.12105 15.8583 6.83123 15.8709C6.5414 15.8834 6.25777 15.9588 6 16.0919L4.86 16.6619L3.76 15.5619L4.36 14.4519C4.4931 14.1941 4.56852 13.9105 4.58105 13.6207C4.59357 13.3309 4.5429 13.0418 4.43254 12.7735C4.32218 12.5052 4.15478 12.2641 3.94195 12.067C3.72912 11.8699 3.47595 11.7214 3.2 11.6319L2 11.2319V9.67191L3.2 9.27191C3.47595 9.1824 3.72912 9.03393 3.94195 8.83681C4.15478 8.63968 4.32218 8.39861 4.43254 8.13033C4.5429 7.86204 4.59357 7.57296 4.58105 7.28313C4.56852 6.99331 4.4931 6.70967 4.36 6.45191L3.79 5.34191L4.89 4.24191L6 4.81191C6.25777 4.945 6.5414 5.02043 6.83123 5.03295C7.12105 5.04548 7.41014 4.9948 7.67842 4.88445C7.94671 4.77409 8.18778 4.60669 8.3849 4.39385C8.58203 4.18102 8.73049 3.92785 8.82 3.65191L9.22 2.45191H10.78L11.18 3.65191C11.2695 3.92785 11.418 4.18102 11.6151 4.39385C11.8122 4.60669 12.0533 4.77409 12.3216 4.88445C12.5899 4.9948 12.879 5.04548 13.1688 5.03295C13.4586 5.02043 13.7422 4.945 14 4.81191L15.14 4.24191L16.24 5.34191L15.64 6.45191C15.5122 6.70835 15.4411 6.98925 15.4313 7.2756C15.4215 7.56194 15.4734 7.84704 15.5834 8.11159C15.6934 8.37614 15.8589 8.61398 16.0688 8.80899C16.2787 9.004 16.5281 9.15164 16.8 9.24191L18 9.64191V11.2319ZM10 6.45191C9.20888 6.45191 8.43552 6.6865 7.77772 7.12603C7.11993 7.56556 6.60724 8.19027 6.30448 8.92117C6.00173 9.65208 5.92252 10.4563 6.07686 11.2323C6.2312 12.0082 6.61217 12.7209 7.17158 13.2803C7.73099 13.8397 8.44372 14.2207 9.21964 14.375C9.99557 14.5294 10.7998 14.4502 11.5307 14.1474C12.2616 13.8447 12.8864 13.332 13.3259 12.6742C13.7654 12.0164 14 11.243 14 10.4519C14 9.39104 13.5786 8.37363 12.8284 7.62348C12.0783 6.87333 11.0609 6.45191 10 6.45191V6.45191ZM10 12.4519C9.60444 12.4519 9.21776 12.3346 8.88886 12.1148C8.55996 11.8951 8.30362 11.5827 8.15224 11.2173C8.00087 10.8518 7.96126 10.4497 8.03843 10.0617C8.1156 9.67376 8.30608 9.3174 8.58579 9.03769C8.86549 8.75799 9.22186 8.56751 9.60982 8.49034C9.99778 8.41317 10.3999 8.45277 10.7654 8.60415C11.1308 8.75552 11.4432 9.01187 11.6629 9.34077C11.8827 9.66967 12 10.0563 12 10.4519C12 10.9823 11.7893 11.491 11.4142 11.8661C11.0391 12.2412 10.5304 12.4519 10 12.4519Z" fill="#803B00"/>
</svg>
