<svg width="20" height="21" viewBox="0 0 20 21" fill="none" xmlns="http://www.w3.org/2000/svg">
<path d="M19.9961 6.27192C20.0009 6.20867 20.0009 6.14516 19.9961 6.08192V6.08192L17.9961 1.08192C17.918 0.884273 17.7789 0.716653 17.5991 0.603372C17.4193 0.490091 17.2081 0.437041 16.9961 0.451916H2.99609C2.79581 0.451722 2.60009 0.511671 2.43428 0.623997C2.26846 0.736323 2.1402 0.895851 2.06609 1.08192L0.0660937 6.08192C0.0612734 6.14516 0.0612734 6.20867 0.0660937 6.27192C0.0328645 6.32758 0.00920331 6.38843 -0.00390625 6.45192V6.45192C0.00722433 7.14316 0.19732 7.81971 0.547838 8.4156C0.898357 9.01148 1.39733 9.50634 1.99609 9.85192V19.4519C1.99609 19.7171 2.10145 19.9715 2.28899 20.159C2.47652 20.3466 2.73088 20.4519 2.99609 20.4519H16.9961C17.2613 20.4519 17.5157 20.3466 17.7032 20.159C17.8907 19.9715 17.9961 19.7171 17.9961 19.4519V9.89192C18.6006 9.5429 19.1033 9.04174 19.4542 8.43825C19.8051 7.83477 19.9919 7.14997 19.9961 6.45192V6.45192C20.0055 6.39228 20.0055 6.33155 19.9961 6.27192V6.27192ZM10.9961 18.4519H8.99609V14.4519H10.9961V18.4519ZM15.9961 18.4519H12.9961V13.4519C12.9961 13.1867 12.8907 12.9323 12.7032 12.7448C12.5157 12.5573 12.2613 12.4519 11.9961 12.4519H7.99609C7.73088 12.4519 7.47652 12.5573 7.28899 12.7448C7.10145 12.9323 6.99609 13.1867 6.99609 13.4519V18.4519H3.99609V10.4519C4.56556 10.4487 5.12778 10.3239 5.64515 10.0859C6.16251 9.84795 6.62309 9.50224 6.99609 9.07192C7.37146 9.49754 7.8331 9.83842 8.35034 10.0719C8.86759 10.3054 9.42859 10.4262 9.99609 10.4262C10.5636 10.4262 11.1246 10.3054 11.6418 10.0719C12.1591 9.83842 12.6207 9.49754 12.9961 9.07192C13.3691 9.50224 13.8297 9.84795 14.347 10.0859C14.8644 10.3239 15.4266 10.4487 15.9961 10.4519V18.4519ZM15.9961 8.45192C15.4657 8.45192 14.957 8.2412 14.5819 7.86613C14.2068 7.49106 13.9961 6.98235 13.9961 6.45192C13.9961 6.1867 13.8907 5.93235 13.7032 5.74481C13.5157 5.55727 13.2613 5.45192 12.9961 5.45192C12.7309 5.45192 12.4765 5.55727 12.289 5.74481C12.1015 5.93235 11.9961 6.1867 11.9961 6.45192C11.9961 6.98235 11.7854 7.49106 11.4103 7.86613C11.0352 8.2412 10.5265 8.45192 9.99609 8.45192C9.46566 8.45192 8.95695 8.2412 8.58188 7.86613C8.20681 7.49106 7.99609 6.98235 7.99609 6.45192C7.99609 6.1867 7.89074 5.93235 7.7032 5.74481C7.51566 5.55727 7.26131 5.45192 6.99609 5.45192C6.73088 5.45192 6.47652 5.55727 6.28899 5.74481C6.10145 5.93235 5.99609 6.1867 5.99609 6.45192C6.00594 6.71456 5.96396 6.97657 5.87255 7.22299C5.78114 7.46941 5.64209 7.69541 5.46334 7.8881C5.28459 8.08078 5.06963 8.23637 4.83075 8.34597C4.59187 8.45558 4.33374 8.51707 4.07109 8.52692C3.54066 8.54681 3.02405 8.35517 2.63491 7.99416C2.44223 7.81541 2.28664 7.60046 2.17704 7.36157C2.06743 7.12269 2.00594 6.86456 1.99609 6.60192L3.67609 2.45192H16.3161L17.9961 6.60192C17.9582 7.10593 17.7309 7.57691 17.3598 7.92012C16.9888 8.26334 16.5015 8.45334 15.9961 8.45192V8.45192Z" fill="#803B00"/>
</svg>
