<svg width="20" height="21" viewBox="0 0 20 21" fill="none" xmlns="http://www.w3.org/2000/svg">
<path d="M7.00684 9.24805C7.20462 9.24805 7.39796 9.1894 7.56241 9.07952C7.72686 8.96964 7.85503 8.81346 7.93072 8.63073C8.00641 8.448 8.02621 8.24694 7.98763 8.05296C7.94904 7.85898 7.8538 7.68079 7.71395 7.54094C7.57409 7.40109 7.39591 7.30585 7.20193 7.26726C7.00795 7.22868 6.80688 7.24848 6.62416 7.32417C6.44143 7.39985 6.28525 7.52803 6.17537 7.69248C6.06549 7.85693 6.00684 8.05027 6.00684 8.24805C6.00684 8.51326 6.1122 8.76762 6.29973 8.95515C6.48727 9.14269 6.74162 9.24805 7.00684 9.24805ZM10.0068 0.248047C8.02903 0.248047 6.09563 0.834537 4.45114 1.93335C2.80665 3.03216 1.52492 4.59395 0.768045 6.42121C0.0111688 8.24847 -0.186865 10.2591 0.198988 12.1989C0.58484 14.1388 1.53725 15.9206 2.93577 17.3191C4.3343 18.7176 6.11613 19.67 8.05594 20.0559C9.99575 20.4418 12.0064 20.2437 13.8337 19.4868C15.6609 18.73 17.2227 17.4482 18.3215 15.8037C19.4203 14.1593 20.0068 12.2259 20.0068 10.248C20.0068 8.93483 19.7482 7.63447 19.2456 6.42121C18.7431 5.20796 18.0065 4.10556 17.0779 3.17698C16.1493 2.24839 15.0469 1.5118 13.8337 1.00925C12.6204 0.506705 11.3201 0.248047 10.0068 0.248047V0.248047ZM10.0068 18.248C8.42459 18.248 6.87787 17.7789 5.56228 16.8998C4.24669 16.0208 3.22131 14.7713 2.6158 13.3095C2.0103 11.8477 1.85188 10.2392 2.16056 8.68732C2.46924 7.13548 3.23117 5.71001 4.34999 4.59119C5.46881 3.47237 6.89427 2.71045 8.44612 2.40176C9.99797 2.09308 11.6065 2.25151 13.0683 2.85701C14.5301 3.46251 15.7795 4.48789 16.6586 5.80348C17.5376 7.11908 18.0068 8.6658 18.0068 10.248C18.0068 12.3698 17.164 14.4046 15.6637 15.9049C14.1634 17.4052 12.1286 18.248 10.0068 18.248V18.248ZM13.0068 11.248H7.00684C6.74162 11.248 6.48727 11.3534 6.29973 11.5409C6.1122 11.7285 6.00684 11.9828 6.00684 12.248C6.00684 13.3089 6.42827 14.3263 7.17841 15.0765C7.92856 15.8266 8.94597 16.248 10.0068 16.248C11.0677 16.248 12.0851 15.8266 12.8353 15.0765C13.5854 14.3263 14.0068 13.3089 14.0068 12.248C14.0068 11.9828 13.9015 11.7285 13.7139 11.5409C13.5264 11.3534 13.2721 11.248 13.0068 11.248ZM10.0068 14.248C9.65612 14.2477 9.31165 14.1551 9.008 13.9796C8.70436 13.8041 8.4522 13.5518 8.27684 13.248H11.7368C11.5615 13.5518 11.3093 13.8041 11.0057 13.9796C10.702 14.1551 10.3576 14.2477 10.0068 14.248ZM13.0068 7.24805C12.8091 7.24805 12.6157 7.3067 12.4513 7.41658C12.2868 7.52646 12.1586 7.68264 12.083 7.86536C12.0073 8.04809 11.9875 8.24916 12.0261 8.44314C12.0646 8.63712 12.1599 8.8153 12.2997 8.95515C12.4396 9.09501 12.6178 9.19025 12.8118 9.22883C13.0057 9.26742 13.2068 9.24761 13.3895 9.17193C13.5723 9.09624 13.7284 8.96807 13.8383 8.80362C13.9482 8.63917 14.0068 8.44583 14.0068 8.24805C14.0068 7.98283 13.9015 7.72848 13.7139 7.54094C13.5264 7.3534 13.2721 7.24805 13.0068 7.24805Z" fill="white"/>
</svg>
