<svg width="519" height="651" viewBox="0 0 519 651" fill="none" xmlns="http://www.w3.org/2000/svg">
<path d="M11.3257 85.4873L142.139 7.64412C147.954 4.09374 157.136 -1.12981 163.829 0.216882C163.829 0.216882 176.133 -1.35426 189.579 18.4993L322.862 240.215C325.922 245.214 330.044 259.272 329.493 265.108L329.371 266.455C328.554 275.229 322.209 281.37 314.577 285.757L189.743 362.193C187.049 363.743 177.418 369.089 170.787 371.518C162.258 374.619 153.198 369.253 148.505 361.458C113.593 303.591 6.10213 128.031 6.10213 128.031C-6.89553 108.687 3.77602 90.0783 11.3257 85.4669V85.4873Z" fill="black"/>
<path d="M64.6624 202.262L14.3449 119.889C12.4881 116.869 11.6923 113.319 12.0392 109.789L12.5085 105.035C13.0186 99.954 15.8753 95.4038 20.2214 92.7512L149.178 13.9899C152.504 11.9494 156.462 11.1945 160.298 11.8066L165.501 12.6636C170.174 13.4389 174.296 16.1936 176.765 20.2541L318.76 252.722C320.902 256.212 321.637 260.395 320.841 264.394L320.759 264.782C319.861 269.291 317.086 273.209 313.148 275.576C285.276 292.226 173.235 360.826 167.093 358.622C162.522 356.969 158.013 355.133 155.483 350.991L64.6624 202.303V202.262Z" fill="#E80537"/>
<path d="M228.306 104.627C228.306 104.627 203.555 95.1998 183.314 107.565C163.073 119.93 158.645 143.008 161.604 156.964C164.562 170.9 187.681 188.285 187.681 188.285C187.681 188.285 202.555 192.162 210.921 177.797C219.287 163.432 201.494 144.171 207.452 143.314C213.411 142.457 233.958 150.292 233.958 150.292L253.036 145.13L228.306 104.647V104.627Z" fill="#00E984"/>
<path d="M158.79 194.814C157.545 192.794 150.832 157.515 126.632 142.191C102.433 126.847 89.19 131.703 74.8048 137.723C60.4197 143.742 45.8101 171.41 45.8101 171.41L136.488 319.853C136.488 319.853 186.764 302.815 199.762 282.37C212.76 261.925 213.861 238.072 197.456 217.994C181.051 197.895 158.79 194.814 158.79 194.814Z" fill="#FF7500"/>
<path d="M147.65 106.708C142.324 109.85 133.938 115.176 128.755 118.502C126.225 120.134 122.858 119.338 121.267 116.788L102.535 86.6297C100.944 84.0792 101.74 80.7328 104.311 79.1617L123.674 67.3271C126.225 65.7763 129.551 66.5721 131.102 69.1227L149.486 99.2397C151.057 101.811 150.221 105.177 147.629 106.708H147.65Z" fill="#A6A6A6"/>
<mask id="mask0_438_1729" style="mask-type:alpha" maskUnits="userSpaceOnUse" x="46" y="58" width="473" height="593">
<rect x="46" y="58.3726" width="473" height="592" rx="30" fill="#FF7500"/>
</mask>
<g mask="url(#mask0_438_1729)">
<g clip-path="url(#clip0_438_1729)">
<rect x="46" y="58.3726" width="473" height="592" rx="30" fill="#FF7500"/>
<path d="M241.611 348.094C241.611 348.094 217.737 360.031 217.37 371.967C217.003 383.904 231.837 386.801 237.999 385.353C244.141 383.904 263.688 374.13 263.688 374.13L261.158 392.576C261.158 392.576 238.733 430.569 251.384 435.629C264.055 440.69 278.89 440.69 278.89 440.69L291.561 446.831L266.953 365.417L241.631 348.053L241.611 348.094Z" fill="#EDBC94"/>
<path d="M447.859 455.196C438.453 431.323 441.146 377.741 430.638 345.175C420.15 312.61 342.184 272.821 326.636 266.312C326.432 266.23 326.208 266.169 326.004 266.087C322.861 275.412 316.373 281.962 307.048 285.798C302.538 287.655 296.07 287.839 292.05 290.614C289.255 292.532 287.439 296.857 285.643 299.612C280.277 307.855 269.626 303.734 268.463 294.96C268.402 294.45 268.218 293.817 267.973 293.103C264.341 292.878 261.158 290.614 259.75 286.553C258.934 284.227 251.772 282.452 249.507 280.758C248.752 280.187 248.079 279.534 247.528 278.84C247.242 278.922 247.059 278.983 247.059 278.983C247.059 278.983 221.308 276.575 215.574 301.428C211.881 317.384 244.875 350.99 259.362 364.743C273.829 378.496 295.193 450.871 295.193 450.871C295.193 450.871 362.854 536.998 364.303 537.345L411.702 495.74L460.918 486.701C460.918 486.701 457.306 479.11 447.9 455.217L447.859 455.196Z" fill="#EDBC94"/>
<path d="M375.853 507.31C375.139 506.229 337.635 470.766 337.635 470.766L380.934 503.699L375.873 507.31H375.853Z" fill="black"/>
<path d="M11.3262 85.4873L142.139 7.64412C147.955 4.09374 157.137 -1.12981 163.829 0.216882C163.829 0.216882 176.133 -1.35426 189.58 18.4993L322.862 240.215C325.923 245.214 330.044 259.272 329.493 265.108L329.371 266.455C328.555 275.229 322.209 281.37 314.578 285.757L189.743 362.193C187.05 363.743 177.419 369.089 170.787 371.518C162.258 374.619 153.199 369.253 148.506 361.458C113.593 303.591 6.10262 128.031 6.10262 128.031C-6.89504 108.687 3.77651 90.0783 11.3262 85.4669V85.4873Z" fill="black"/>
<path d="M64.6629 202.262L14.3454 119.889C12.4886 116.869 11.6928 113.319 12.0397 109.789L12.509 105.035C13.0191 99.954 15.8758 95.4038 20.2219 92.7512L149.178 13.9899C152.504 11.9494 156.463 11.1945 160.299 11.8066L165.502 12.6636C170.175 13.4389 174.296 16.1936 176.765 20.2541L318.76 252.722C320.903 256.212 321.637 260.395 320.841 264.394L320.76 264.782C319.862 269.291 317.087 273.209 313.149 275.576C285.276 292.226 173.235 360.826 167.093 358.622C162.523 356.969 158.013 355.133 155.483 350.991L64.6629 202.303V202.262Z" fill="#E80537"/>
<path d="M228.306 104.627C228.306 104.627 203.556 95.1998 183.314 107.565C163.073 119.93 158.645 143.008 161.604 156.964C164.563 170.9 187.681 188.285 187.681 188.285C187.681 188.285 202.556 192.162 210.922 177.797C219.288 163.432 201.495 144.171 207.453 143.314C213.411 142.457 233.958 150.292 233.958 150.292L253.037 145.13L228.306 104.647V104.627Z" fill="#00E984"/>
<path d="M158.79 194.814C157.546 192.794 150.833 157.515 126.633 142.191C102.433 126.847 89.1905 131.703 74.8053 137.723C60.4202 143.742 45.8105 171.41 45.8105 171.41L136.488 319.853C136.488 319.853 186.765 302.815 199.762 282.37C212.76 261.925 213.862 238.072 197.457 217.994C181.052 197.895 158.79 194.814 158.79 194.814Z" fill="#FF7500"/>
<path d="M147.65 106.708C142.325 109.85 133.938 115.176 128.756 118.502C126.225 120.134 122.859 119.338 121.267 116.788L102.536 86.6297C100.944 84.0792 101.74 80.7328 104.311 79.1617L123.675 67.3271C126.225 65.7763 129.551 66.5721 131.102 69.1227L149.487 99.2397C151.058 101.811 150.221 105.177 147.63 106.708H147.65Z" fill="#A6A6A6"/>
<path d="M295.582 443.607C294.297 442.322 262.364 362.948 262.364 362.948C262.364 362.948 209.312 319.813 214.474 304.286C219.657 288.758 238.633 270.639 254.161 284.003C269.689 297.368 336.554 375.456 336.554 375.456C336.554 375.456 364.162 413.837 351.225 426.794C338.289 439.731 295.582 443.607 295.582 443.607Z" fill="#EDBC94"/>
<path d="M442.064 415.979C445.859 391.004 440.84 356.541 426.72 328.321C412.6 300.102 353.223 276.086 326.636 266.312C326.574 266.292 326.493 266.271 326.432 266.251C326.166 267.598 325.636 268.904 324.82 270.087C324.963 269.924 325.085 269.74 325.228 269.556C324.452 270.618 323.718 271.699 322.861 272.699C328.472 275.209 333.838 278.82 341.307 281.309C355.957 286.186 407.519 315.507 415.661 328.525C423.802 341.544 421.088 344.257 426.516 351.868C431.943 359.459 434.106 398.003 434.106 424.059C434.106 450.116 451.287 488.823 454.001 489.925L466.672 495.169C466.672 495.169 438.269 440.934 442.064 415.959V415.979Z" fill="black"/>
<path d="M335.328 369.436C335.328 369.436 342.572 356.05 351.244 348.807C359.936 341.563 374.036 335.789 374.036 335.789C374.036 335.789 350.162 340.849 341.837 346.644C341.45 346.909 341.103 347.236 340.756 347.542C339.695 345.318 338.716 342.318 338.205 338.319C336.757 326.749 347.979 315.527 347.979 315.527C347.979 315.527 341.103 320.24 336.41 321.322C331.696 322.403 320.494 320.608 312.169 314.446C303.844 308.283 302.395 289.47 302.395 289.47C302.395 289.47 298.784 298.163 296.601 301.407C295.274 303.407 289.765 305.549 285.705 306.937C268.932 289.94 246.365 270.882 237.142 271.229C223.022 271.78 204.842 284.512 207.576 306.773C208.922 317.792 222.287 330.973 235.816 343.053C233.245 344.461 212.024 356.499 212.31 372.353C212.452 379.74 214.126 392.615 229.674 391.534C240.06 390.82 252.935 384.066 260.362 379.658C255.771 385.535 248.283 397.247 243.059 409.265C236.101 425.283 241.61 439.301 247.773 442.912C253.914 446.524 273.095 442.545 273.095 442.545C273.095 442.545 272.013 455.216 279.604 459.542C287.194 463.888 299.641 461.501 299.641 461.501V461.419C300.396 462.766 301.151 463.99 301.865 465.072C314.353 483.517 362.222 539.242 362.222 539.242L364.425 532.284C361.16 527.938 306.538 464.806 303.273 449.054C300.008 433.322 270.156 364.926 270.156 364.926C270.156 364.926 216.452 316.098 215.962 305.57C215.309 291.98 236.509 269.943 256.036 290.572C275.584 311.201 329.309 367.11 329.309 367.11L304.538 329.014C302.518 325.668 298.233 320.404 292.724 314.384C295.886 313.038 299.457 311.201 299.457 311.201C299.457 311.201 303.436 318.445 308.864 322.424C314.291 326.403 332.39 332.197 332.39 332.197C332.39 332.197 330.574 337.992 330.574 345.215C330.574 351.439 333.778 358.193 335.369 360.641C334.859 365.436 335.267 369.456 335.267 369.456L335.328 369.436ZM270.218 389.269C274.094 400.899 279.624 416.325 285.399 430.608L277.808 433.485C277.808 433.485 254.608 443.932 251.18 427.548C247.344 409.245 263.464 394.533 270.238 389.269H270.218ZM243.304 349.643C250.813 356.214 257.669 362.233 261.689 367.11C255.424 371.803 234.775 386.392 227.144 380.291C218.105 373.047 221.349 367.273 224.981 363.294C228.246 359.703 240.856 351.276 243.324 349.664L243.304 349.643Z" fill="black"/>
<path d="M239.792 317.712C240.874 315.896 261.503 303.245 261.503 303.245C261.503 303.245 249.566 289.86 240.874 289.493C232.181 289.125 228.202 301.062 228.57 306.143C228.937 311.203 239.792 317.712 239.792 317.712Z" fill="black"/>
<path d="M316.329 459.625L364.361 519.063L370.605 511.187" fill="black"/>
<path d="M286.155 432.466L279.442 437.057C279.442 437.057 276.401 447.402 281.809 451.687C287.216 455.972 296.255 455.115 296.255 455.115L286.93 434.344L286.155 432.466Z" fill="#EDBC94"/>
<path d="M431.902 667.975L411.865 637.184L391.869 606.21L372.627 574.624L352.835 543.793L353.753 537.794L383.585 512.778L384.013 512.452L416.517 491.149L418.497 490.415L465.549 484.702L469.794 486.518L490.055 513.737L511.704 539.957L511.949 540.283L531.129 568.319L552.146 594.988L573.285 622.044L571.959 628.839L535.414 649.978L534.945 650.202L496.707 666.893L495.197 667.281L465.447 669.444L435.861 670.056L431.902 667.975Z" fill="#E80537"/>
<path d="M438.511 667.546C438.511 667.546 438.491 667.465 438.47 667.424C437.552 666.934 436.797 666.241 436.185 665.465H435.756L415.719 634.675L395.723 603.721L376.543 572.237L356.709 541.324L386.541 516.308L419.045 494.986L466.118 489.272L486.462 516.594L508.192 542.895L527.454 571.054L548.552 597.845L569.692 624.881L569.324 625.085C571.324 626.452 573.099 628.329 574.752 630.39L576.915 619.229L555.776 592.193L534.841 565.626L515.742 537.733L515.252 537.08L493.685 510.962L473.484 483.824L465.016 480.192H443.531C428.084 480.192 413.046 485.171 400.661 494.394L380.644 509.31L350.812 534.326L348.976 546.323L368.748 577.155L387.867 608.537L387.989 608.741L407.986 639.694L428.044 670.505L435.94 674.668L443.694 674.504C442.469 673.056 441.266 671.566 440.164 670.036C439.633 669.301 438.797 668.444 438.511 667.567V667.546Z" fill="black"/>
</g>
</g>
<defs>
<clipPath id="clip0_438_1729">
<rect width="576.896" height="742.275" fill="white" transform="translate(0 -67.6274)"/>
</clipPath>
</defs>
</svg>
