<svg width="192" height="181" viewBox="0 0 192 181" fill="none" xmlns="http://www.w3.org/2000/svg">
<g clip-path="url(#clip0_438_1061)">
<path d="M8.39941 16.7621L15.7421 65.1193L133.807 29.5058L130.661 0L8.39941 16.7621Z" fill="#59D359"/>
<path d="M17.4945 24.1792C17.0575 24.441 17.4945 27.7565 17.4945 27.7565L37.1721 25.9679L36.735 21.9106L17.4945 24.1792Z" fill="black"/>
<path d="M39.7051 21.9104L40.2296 24.8333L93.8378 17.8047C93.8378 17.8047 93.2259 14.6636 92.9637 14.6636C92.7014 14.6636 39.7051 21.9104 39.7051 21.9104Z" fill="black"/>
<path d="M25.1877 37.2765C25.1877 37.2765 21.866 39.3705 21.6037 39.0215C21.3415 38.6725 19.6807 35.6187 19.6807 35.6187L24.8429 32.1286L29.6506 30.8198C29.6506 30.8198 33.6716 51.3338 33.5841 51.7701C33.4967 52.2063 28.8639 53.7769 28.8639 53.7769L25.1925 37.2765H25.1877Z" fill="black"/>
<path d="M49.4996 42.2937C48.101 34.7415 45.6535 29.2446 42.764 29.2446H38.4808C38.4808 29.2446 33.1438 29.5936 32.7067 35.6189C32.2696 41.6441 34.1927 49.2351 38.4808 50.7184C42.764 52.2017 50.8982 49.8459 49.4996 42.2937ZM43.9878 47.3107C42.4144 49.1527 39.1801 45.4784 37.6018 40.6747C36.0284 35.8758 38.913 34.0387 38.913 34.0387H40.5738C42.2347 34.0387 42.2347 34.9112 43.5459 37.965C44.8571 41.0188 45.5564 45.4639 43.9829 47.3058L43.9878 47.3107Z" fill="black"/>
<path d="M64.9782 32.5596C62.4432 26.6216 58.2425 26.6216 58.2425 26.6216C58.2425 26.6216 52.5559 26.8833 51.2447 30.0244C49.9335 33.1655 49.5838 41.8956 51.6817 44.6004C53.7796 47.3052 63.2251 47.3925 64.9733 44.6004C66.7216 41.8083 66.2942 35.6425 64.9733 32.5547L64.9782 32.5596ZM59.1167 42.7729C57.3684 43.471 55.795 41.1152 55.3579 37.6251C54.9209 34.135 55.9698 30.8145 58.16 31.3381C60.3502 31.8616 60.6027 39.4574 60.6027 40.1893C60.6027 40.1893 60.8649 42.0749 59.1167 42.7729Z" fill="black"/>
<path d="M139.746 18.7644L6.29641 62.4147C6.29641 62.4147 -1.75041 63.8108 0.34749 71.3193C0.745703 72.7396 5.16976 82.4004 5.16976 82.4004C5.16976 82.4004 6.62178 87.5289 7.46191 89.5938C9.35585 94.2473 11.5169 99.5067 13.8188 105.081C26.3188 135.319 42.9757 174.689 43.1991 175.024C43.5488 175.547 48.4488 183.405 63.1389 180.264C77.8291 177.122 185.4 131.203 185.4 131.203C185.4 131.203 195.02 124.393 189.946 112.522C189.319 111.058 188.299 108.688 186.988 105.653C184.793 100.568 180.117 91.4116 180.117 91.4116C180.117 91.4116 176.576 81.586 175.6 79.3369C172.74 72.7396 169.773 65.8806 166.976 59.4288C159.779 42.8315 153.737 28.9002 153.737 28.9002C153.737 28.9002 149.367 16.68 147.264 16.5055C145.161 16.331 139.742 18.7741 139.742 18.7741L139.746 18.7644Z" fill="black"/>
<path d="M47.9227 133.535C47.3594 133.535 46.8107 133.462 46.2959 133.316C45.8588 133.19 45.6355 133.142 45.4121 133.089C45.1498 133.026 44.8876 132.967 44.368 132.822C41.8621 132.109 39.6428 130.098 38.7104 127.703C37.5692 124.771 37.0107 123.302 36.4474 121.833C35.8889 120.369 35.3256 118.905 34.1892 115.982C33.0432 113.03 32.509 111.513 31.9942 110.044C31.4843 108.6 30.9598 107.102 29.8332 104.198C28.7017 101.285 28.0946 99.8164 27.507 98.3961C26.9146 96.9613 26.2978 95.478 25.1566 92.5357C24.0251 89.6224 23.4181 88.1537 22.8304 86.7334C22.238 85.2986 21.6212 83.8153 20.48 80.873C19.3242 77.8967 18.8386 76.3407 18.3724 74.838C17.8965 73.316 17.4497 71.8811 16.3328 69.0018C15.6723 67.3052 15.716 65.4681 16.459 63.374C16.561 63.088 16.561 62.9863 16.5707 62.7584C16.5804 62.4143 16.5902 61.9392 16.8572 61.1927C17.6003 59.1035 19.3145 57.4845 21.8203 56.515C24.6953 55.4002 26.0501 54.7458 27.4779 54.0477C28.9008 53.3546 30.3771 52.6372 33.3734 51.4786C36.3648 50.3201 37.9286 49.8499 39.4437 49.3943C40.9686 48.9338 42.4109 48.5024 45.2907 47.3875C48.2044 46.2581 49.671 45.6424 51.089 45.0462C52.5265 44.4403 54.0125 43.815 56.97 42.671C59.9323 41.5222 61.4571 40.9938 62.9334 40.48C64.3855 39.9759 65.8861 39.4572 68.795 38.3278C71.7087 37.1984 73.1704 36.5779 74.5836 35.9768C76.0211 35.3661 77.5071 34.7359 80.4646 33.5919C83.3832 32.4625 84.8546 31.8517 86.2726 31.2604C87.7101 30.6641 89.201 30.0437 92.1536 28.8997C95.0673 27.7703 96.5339 27.1498 97.9471 26.5536C99.3845 25.9428 100.871 25.3175 103.828 24.1687C106.805 23.015 108.344 22.506 109.835 22.0165C111.355 21.5123 112.793 21.0373 115.692 19.9176C118.615 18.7833 120.092 18.1822 121.519 17.6005C122.962 17.014 124.448 16.4081 127.4 15.2641C128.211 14.949 129.085 14.7891 129.989 14.7891C130.892 14.7891 131.79 14.9393 132.728 15.2399C132.849 15.2108 132.966 15.2059 133.063 15.2059H133.354L133.641 15.3174C135.632 16.1027 137.171 17.809 138.099 20.2617C138.463 21.236 138.973 22.443 139.556 23.8439C140.367 25.778 141.377 28.1871 142.377 30.8532C142.95 32.3752 143.606 33.9603 144.305 35.6424C145.077 37.5037 145.878 39.433 146.636 41.4495C147.296 43.2139 147.918 45.0608 148.52 46.8494C149.118 48.6284 149.739 50.4655 150.4 52.2397C151.07 54.0332 151.779 55.8267 152.468 57.5669C153.197 59.4089 153.886 61.1491 154.532 62.8942C155.188 64.6634 155.839 66.3794 156.455 68.0178C157.203 70.0004 157.912 71.8763 158.544 73.6019C159.185 75.3567 162.365 84.1546 162.035 85.3471C162.03 85.381 162.021 85.4634 162.006 85.5555C161.953 85.9239 161.875 86.4862 161.676 87.0824C160.904 89.4091 159.053 91.3335 156.732 92.2352C153.901 93.3307 152.444 93.8542 151.041 94.3631C149.652 94.8624 148.214 95.3811 145.412 96.4669C142.581 97.5624 141.158 98.0908 139.74 98.624C138.332 99.1475 136.923 99.671 134.121 100.757C131.314 101.847 129.916 102.405 128.517 102.967C127.109 103.529 125.705 104.097 122.879 105.187C120.082 106.268 118.683 106.869 117.328 107.446C115.949 108.033 114.526 108.643 111.685 109.744C109.121 110.737 107.786 111.329 106.494 111.901C104.994 112.565 103.571 113.195 100.467 114.339C97.7091 115.352 96.228 115.764 94.7954 116.162C93.2948 116.579 91.8768 116.971 88.9921 118.091C85.9181 119.279 84.4661 119.962 82.9315 120.684C81.4164 121.397 79.8429 122.129 76.6718 123.36C73.5007 124.591 71.8398 125.1 70.2373 125.595C68.6153 126.094 67.0807 126.564 64.0115 127.757C60.9084 128.959 59.3398 129.608 57.8295 130.234C56.2998 130.869 54.7167 131.523 51.5795 132.735C50.6034 133.113 49.3068 133.549 47.9325 133.549L47.9227 133.535Z" fill="#E80537"/>
<path d="M129.984 16.3212C130.94 16.3212 132.99 16.7381 133.058 16.7381C133.058 16.7381 133.067 16.7381 133.072 16.7381C134.855 17.441 135.976 19.0067 136.651 20.7953C137.555 23.1851 139.225 26.8497 140.935 31.3868C142.154 34.6297 143.761 38.1731 145.194 41.9831C146.495 45.4586 147.617 49.1669 148.962 52.7684C150.322 56.4136 151.818 59.9861 153.095 63.4181C154.547 67.3299 155.95 70.9702 157.101 74.121C159.408 80.4177 160.607 84.7319 160.554 84.9258C160.476 85.1972 160.457 85.8807 160.219 86.5932C159.583 88.5128 158.068 90.0639 156.178 90.7959C150.545 92.9772 150.492 92.8463 144.858 95.0276C139.225 97.2089 139.196 97.1362 133.563 99.3175C127.93 101.499 127.954 101.567 122.321 103.748C116.687 105.929 116.76 106.118 111.122 108.304C105.484 110.486 105.605 110.806 99.9284 112.89C94.2514 114.974 94.062 114.47 88.4287 116.652C82.1836 119.07 82.3536 119.497 76.1084 121.916C69.8633 124.335 69.6933 123.894 63.4481 126.308C57.203 128.726 57.2613 128.867 51.0161 131.286C50.0254 131.669 48.9668 131.993 47.9227 131.993C47.5196 131.993 47.1165 131.945 46.7183 131.834C45.7616 131.562 45.7471 131.611 44.7952 131.339C42.7507 130.757 40.9199 129.119 40.1478 127.141C37.8751 121.286 37.8993 121.276 35.6266 115.42C33.3539 109.565 33.5384 109.492 31.2657 103.637C28.993 97.7809 28.8618 97.8294 26.5891 91.9738C24.3164 86.1133 24.1853 86.1667 21.9125 80.3062C19.6398 74.4506 20.038 74.2955 17.7653 68.4351C17.1777 66.9227 17.3622 65.4055 17.9061 63.8786C18.2703 62.8461 17.9353 62.7297 18.3043 61.6973C18.9648 59.8407 20.5334 58.6531 22.3739 57.9406C28.2451 55.6672 28.0557 55.1776 33.9269 52.9042C39.7981 50.6308 39.9778 51.0864 45.849 48.813C51.7203 46.5396 51.6571 46.3699 57.5283 44.0965C63.3996 41.8231 63.4821 42.0316 69.3533 39.7582C75.2246 37.4848 75.1517 37.2957 81.0229 35.0223C86.8941 32.7489 86.8407 32.6035 92.712 30.3252C98.5832 28.0518 98.5152 27.8676 104.386 25.5942C110.262 23.3208 110.374 23.6165 116.25 21.3382C122.126 19.0648 122.087 18.963 127.959 16.6848C128.619 16.4279 129.304 16.3164 129.989 16.3164M129.989 13.2432C128.891 13.2432 127.837 13.4371 126.842 13.82C123.879 14.9688 122.384 15.5747 120.937 16.1661C119.514 16.7478 118.042 17.344 115.133 18.4735C112.268 19.5835 110.85 20.0488 109.35 20.5481C107.839 21.0474 106.28 21.5612 103.269 22.7294C100.288 23.8831 98.792 24.5181 97.3448 25.1337C95.8734 25.7542 94.4893 26.3455 91.595 27.4653C88.623 28.6141 87.1273 29.2394 85.6801 29.8405C84.2038 30.4561 82.8052 31.0378 79.906 32.1575C76.9242 33.3112 75.4285 33.9462 73.9814 34.5618C72.5148 35.1871 71.1259 35.7736 68.2364 36.8934C65.3518 38.0131 63.9289 38.5027 62.4235 39.0262C60.9326 39.5449 59.3932 40.0781 56.4066 41.2366C53.4297 42.3903 51.9339 43.0204 50.4868 43.6263C49.0153 44.2468 47.6216 44.8285 44.7272 45.9531C41.9009 47.0486 40.4877 47.4751 38.992 47.9211C37.4477 48.3864 35.8549 48.8663 32.8051 50.0442C29.7505 51.227 28.2451 51.9589 26.7931 52.6666C25.3896 53.3501 24.0687 53.99 21.2521 55.0806C18.3189 56.2149 16.2938 58.1538 15.3954 60.6745C15.0749 61.5761 15.0361 62.2014 15.0215 62.7152C15.0215 62.7443 15.0215 62.7685 15.0215 62.7976C15.0166 62.817 15.0069 62.8364 15.0021 62.8558C14.1328 65.3085 14.094 67.4995 14.8904 69.55C15.9879 72.3808 16.4298 73.7914 16.896 75.2892C17.3719 76.8161 17.8624 78.3964 19.0376 81.4211C20.1886 84.378 20.8053 85.871 21.4026 87.3155C21.9854 88.7261 22.5924 90.19 23.7191 93.0887C24.87 96.0504 25.4867 97.5386 26.0841 98.9831C26.6668 100.394 27.2738 101.858 28.3956 104.751C29.5126 107.636 30.0128 109.051 30.5421 110.554C31.0617 112.032 31.6008 113.564 32.7566 116.54C33.8929 119.468 34.4514 120.932 35.0147 122.396C35.578 123.864 36.1414 125.333 37.2777 128.261C38.3947 131.136 40.9491 133.448 43.9502 134.301C44.5039 134.461 44.8049 134.529 45.0672 134.587C45.2857 134.635 45.4751 134.679 45.8733 134.795C46.5241 134.979 47.2136 135.076 47.9227 135.076C49.5544 135.076 51.0258 134.587 52.1282 134.16C55.2848 132.939 56.8728 132.279 58.4122 131.644C59.9176 131.019 61.4716 130.379 64.5602 129.182C67.5808 128.014 69.0863 127.548 70.684 127.059C72.3108 126.56 73.9959 126.041 77.2205 124.79C80.4402 123.545 82.033 122.798 83.5725 122.076C85.0876 121.368 86.5154 120.699 89.536 119.526C92.3477 118.435 93.6686 118.072 95.1984 117.645C96.5921 117.258 98.1704 116.821 100.987 115.784C104.139 114.625 105.581 113.986 107.106 113.307C108.378 112.74 109.699 112.158 112.229 111.174C115.094 110.064 116.532 109.453 117.921 108.857C119.329 108.256 120.655 107.689 123.428 106.618C126.264 105.522 127.696 104.945 129.085 104.388C130.455 103.84 131.873 103.273 134.675 102.187C137.467 101.106 138.895 100.573 140.274 100.059C141.678 99.5357 143.125 98.9976 145.971 97.8973C148.753 96.8211 150.118 96.3267 151.565 95.808C152.978 95.2991 154.44 94.7707 157.291 93.6655C160.034 92.604 162.224 90.3208 163.137 87.5675C163.38 86.8356 163.473 86.1667 163.531 85.7643C163.536 85.7207 163.541 85.6819 163.545 85.6432C163.754 84.8288 163.667 84.2132 162.652 80.9121C162.147 79.2786 161.278 76.5932 159.991 73.0691C159.354 71.3338 158.645 69.453 157.898 67.4704C157.281 65.8369 156.635 64.1209 155.979 62.3565C155.324 60.5921 154.6 58.7646 153.901 56.9953C153.216 55.2648 152.507 53.4762 151.847 51.702C151.191 49.9521 150.579 48.1247 149.982 46.3602C149.375 44.5619 148.748 42.7005 148.078 40.9118C147.311 38.8662 146.505 36.9273 145.728 35.0514C145.033 33.3839 144.383 31.8085 143.819 30.3107C142.804 27.6156 141.789 25.1919 140.978 23.2481C140.396 21.8617 139.895 20.6645 139.541 19.7192C138.458 16.8496 136.613 14.8331 134.209 13.883C134.209 13.883 130.931 13.248 129.989 13.248V13.2432Z" fill="black"/>
<path d="M60.6257 42.7979C60.6257 42.7979 54.9342 52.2308 58.5035 61.4214C62.0729 70.6168 71.2027 74.1312 77.137 73.947C83.0665 73.7676 91.8952 65.5853 91.8952 65.5853C91.8952 65.5853 94.5855 59.783 89.3165 55.3041C84.0475 50.8251 74.8448 56.6759 74.9371 54.1746C75.0245 51.6734 79.7545 43.8498 79.7545 43.8498L79.0455 35.6626L60.6354 42.793L60.6257 42.7979Z" fill="#59D359"/>
<path d="M92.4326 77.8925C91.5099 78.2512 76.5672 78.3966 68.4961 87.1607C60.4299 95.9247 61.4351 101.708 62.8386 108.038C64.2372 114.369 74.4985 122.381 74.4985 122.381L142.005 96.2349C142.005 96.2349 138.737 74.4073 131.322 67.5871C123.906 60.762 114.223 58.5468 104.777 63.777C95.3367 69.0073 92.4326 77.8877 92.4326 77.8877V77.8925Z" fill="#FF7500"/>
<path d="M55.5265 75.9486C56.4249 78.3577 57.9838 82.1871 58.9599 84.5526C59.4358 85.7111 58.8725 87.0296 57.7021 87.4901L43.9686 92.9288C42.808 93.3893 41.4919 92.8173 41.0403 91.654L37.6263 82.856C37.1747 81.6975 37.7526 80.3936 38.9132 79.9476L52.6079 74.6446C53.7783 74.189 55.0943 74.7803 55.5314 75.9534L55.5265 75.9486Z" fill="#A6A6A6"/>
<path d="M16.967 95.2361C16.967 95.2361 26.1696 90.3306 24.5331 90.7862C22.8965 91.2419 15.0439 93.4911 15.0439 93.4911L16.967 95.2361Z" fill="white"/>
<path d="M23.435 110.772C24.3092 110.074 27.1064 111.993 36.2021 108.328C45.2979 104.664 155.142 67.3005 157.589 65.381C160.037 63.4614 161.261 61.1929 161.261 61.1929L185.221 117.233C185.221 117.233 187.844 124.567 178.573 130.151C169.303 135.74 77.8252 167.864 76.951 168.213C76.0769 168.562 55.4378 179.211 48.9644 170.132C42.491 161.053 23.4302 110.772 23.4302 110.772H23.435Z" fill="black"/>
<path d="M147.098 42.7437L152.347 39.0161L153.746 40.5867L147.098 42.7437Z" fill="white"/>
<path d="M33.5806 128.581L51.6459 172.488L55.4823 173.04L33.5806 128.581Z" fill="white"/>
<path d="M59.1317 172.823L48.3022 143.768L63.6723 172.192L59.1317 172.823Z" fill="white"/>
</g>
<defs>
<clipPath id="clip0_438_1061">
<rect width="191.424" height="181" fill="white" transform="translate(0.00390625)"/>
</clipPath>
</defs>
</svg>
