<svg width="183" height="185" viewBox="0 0 183 185" fill="none" xmlns="http://www.w3.org/2000/svg">
<g clip-path="url(#clip0_438_1108)">
<path d="M97.324 134.685C97.2084 133.871 94.7726 125.512 96.0483 122.261C97.324 119.01 101.486 109.333 101.486 109.333L106.13 117.912L97.32 134.689L97.324 134.685Z" fill="#DD8C62"/>
<path d="M105.547 105.168C105.547 105.168 101.979 105.455 99.5155 108.515C97.0518 111.574 98.3514 114.433 97.1594 116.646C96.3262 118.199 95.7322 119.557 94.9987 120.715C94.6678 121.239 94.1854 123.303 94.2572 123.918L95.2698 136.934L97.3268 134.681C97.3268 134.681 95.5249 124.561 96.7129 122.265C97.9009 119.969 99.344 118.778 99.4318 116.734C99.5195 114.689 100.875 110.607 100.875 110.607L106.564 106.61L107.329 104.908L105.547 105.164V105.168Z" fill="black"/>
<path d="M96.6841 100.459L81.1524 71.7883C80.5823 70.7339 80.3711 69.5238 80.5505 68.3377L80.7936 66.7442C81.0528 65.0389 82.0933 63.5572 83.6082 62.7345L128.425 38.3967C129.581 37.7697 130.925 37.578 132.213 37.8575L133.951 38.2369C135.513 38.5764 136.853 39.5828 137.614 40.9926L181.439 121.898C182.097 123.116 182.276 124.533 181.937 125.875L181.905 126.003C181.523 127.509 180.526 128.783 179.155 129.514C169.475 134.65 131.866 155.249 129.856 155.249C129.629 155.249 129.103 155.113 128.505 154.998C126.894 154.682 125.507 153.664 124.726 152.218L96.6921 100.467L96.6841 100.459Z" fill="#E80537"/>
<path d="M153.522 70.3544C153.522 70.3544 145.341 66.7401 138.309 70.5621C131.273 74.3841 129.383 82.096 130.136 86.8525C130.89 91.6091 138.385 97.8752 138.385 97.8752C138.385 97.8752 143.332 99.4448 146.398 94.7402C149.463 90.0355 143.806 83.2302 145.828 83.0425C147.853 82.8548 154.638 85.8581 154.638 85.8581L161.156 84.4443L153.522 70.3544Z" fill="#59D359"/>
<path d="M128.532 99.5806C128.149 98.8777 126.495 86.8566 118.609 81.2614C110.724 75.6662 106.175 77.072 101.22 78.8532C96.2645 80.6304 90.8667 89.7161 90.8667 89.7161L118.852 141.383C118.852 141.383 136.09 136.507 140.823 129.833C145.555 123.16 146.344 115.132 141.161 108.071C135.979 101.006 128.532 99.5806 128.532 99.5806Z" fill="#FF7500"/>
<path d="M91.1446 160.652C91.1446 160.652 98.3045 159.258 99.2972 156.403C100.29 153.547 100.82 147.904 100.82 147.904L91.1406 160.652H91.1446Z" fill="#DD8C62"/>
<path d="M129.854 156.14C129.602 156.14 129.283 156.072 128.845 155.98C128.685 155.948 128.51 155.908 128.331 155.872C126.449 155.501 124.846 154.323 123.937 152.641L80.3761 72.2195C79.7143 71.0014 79.4671 69.5757 79.6744 68.2058L79.9176 66.6123C80.2166 64.6394 81.4405 62.8981 83.1906 61.9476L128.008 37.6098C129.351 36.879 130.918 36.6553 132.413 36.9828L134.151 37.3622C135.973 37.7576 137.524 38.9278 138.413 40.5652L182.237 121.47C183.007 122.888 183.21 124.533 182.815 126.099L182.783 126.227C182.341 127.976 181.173 129.466 179.582 130.308C177.441 131.443 173.873 133.372 169.739 135.6C144.48 149.227 131.376 156.152 129.861 156.152L129.854 156.14ZM97.4785 100.032L125.512 151.783C126.17 152.993 127.322 153.843 128.677 154.107C128.869 154.143 129.052 154.183 129.22 154.219C129.431 154.263 129.706 154.323 129.83 154.339C132.11 153.847 156.009 140.952 168.882 134.007C173.016 131.774 176.588 129.849 178.737 128.711C179.881 128.104 180.722 127.034 181.041 125.775L181.073 125.648C181.356 124.521 181.209 123.339 180.658 122.321L136.834 41.4159C136.196 40.2377 135.076 39.395 133.768 39.1115L132.034 38.7321C130.958 38.5004 129.834 38.6602 128.865 39.1834L84.0477 63.5212C82.7879 64.2041 81.9109 65.4581 81.6956 66.8759L81.4524 68.4694C81.301 69.4559 81.4803 70.4822 81.9587 71.3569L97.4904 100.028L97.4785 100.032Z" fill="black"/>
<path d="M126.305 69.6593C124.459 70.6298 121.533 72.2832 119.731 73.3096C118.846 73.8128 117.73 73.4933 117.24 72.5987L111.451 62.0992C110.961 61.2126 111.288 60.0943 112.177 59.6111L118.91 55.9568C119.795 55.4776 120.903 55.8051 121.386 56.6917L127.063 67.1712C127.549 68.0698 127.21 69.1841 126.309 69.6593H126.305Z" fill="#A6A6A6"/>
<path d="M25.6262 105.312C28.3571 105.519 31.1118 105.591 33.8266 105.336C36.3462 105.1 38.8338 104.633 41.3254 104.205C43.4622 103.838 45.591 103.562 47.6521 102.876C50.1397 102.045 52.4918 100.863 54.7362 99.4529C54.82 99.0934 54.8957 98.73 54.9715 98.3746C54.9595 97.9073 54.9635 97.44 54.9834 96.9688C54.5808 97.1165 54.23 97.1725 53.9389 97.1006C51.0646 96.3577 48.4733 94.8721 48.4733 94.8721L23.2622 103.227C24.0476 103.922 24.8369 104.617 25.6223 105.312H25.6262Z" fill="#CA8C64"/>
<path d="M27.9478 95.2231L29.1796 95.5866L30.3556 96.5251" fill="black"/>
<path d="M69.0614 51.8314C67.5306 50.8849 65.2104 48.7363 65.1067 45.741C65.0111 42.9494 63.3566 40.7089 62.1726 37.9252C60.9926 35.1456 49.3398 21.6428 48.3352 20.5964L28.482 31.8188L19.2292 40.0299C9.97633 48.2411 14.7243 57.9738 14.7243 57.9738C14.7243 57.9738 25.1453 78.6613 25.3725 79.1645C25.4841 79.4121 28.7212 79.6398 31.0175 92.9868C31.5318 95.9662 23.2038 99.4687 21.4856 101.657C22.8649 102.875 24.2403 104.093 25.6197 105.311C28.3505 105.519 31.1052 105.591 33.8201 105.335C36.3396 105.1 38.8272 104.633 41.3188 104.205C43.4556 103.838 45.5844 103.562 47.6455 102.875C49.5551 102.236 51.3849 101.394 53.147 100.399L52.1902 96.086C52.1902 96.086 49.1245 82.1718 49.0528 81.7764C48.981 81.3811 63.4762 81.1614 63.4762 81.1614C63.4762 81.1614 72.0832 80.6702 73.3629 79.488C73.8892 79.0008 74.2798 78.0503 74.527 76.952C74.6865 76.2411 73.8732 75.4464 73.9171 74.6995C73.9689 73.797 74.8499 72.9583 74.7263 72.2793C74.6506 71.856 73.4506 69.4238 73.4506 69.4238C73.4506 69.4238 74.0327 67.7265 73.8652 65.8654C73.7496 64.5634 72.8367 63.3374 72.8367 63.3374C72.8367 63.3374 75.2845 59.6991 76.325 57.195C77.3694 54.6909 70.5763 52.7819 69.0495 51.8354L69.0614 51.8314Z" fill="#DD8C62"/>
<path d="M67.3494 48.6126C65.101 45.3258 65.7309 44.2834 65.0611 41.4918C64.3914 38.7002 55.4614 27.366 55.4614 27.366L55.3737 26.8308C55.3737 26.8308 53.4123 24.3866 53.2409 24.163C53.0695 23.9393 53.0814 25.6327 53.9146 27.5177C54.7438 29.4028 61.2898 37.4821 63.0678 41.3121C64.8418 45.1421 64.2837 47.4385 65.4518 49.4952C66.6238 51.548 73.4808 55.6576 75.1511 56.4084C76.8215 57.1592 73.3492 60.7975 72.2888 62.387C71.7506 63.1937 72.807 65.8176 74.2023 67.0677C74.6249 66.864 75.0515 65.3424 75.1073 65.3504C74.0947 63.9446 73.2774 63.0859 73.2774 63.0859C73.2774 63.0859 77.7384 59.1561 77.6946 56.5841C77.6587 54.4235 69.6018 51.9075 67.3494 48.6166V48.6126Z" fill="black"/>
<path d="M33.4598 57.0708C33.4598 57.0708 31.8532 55.6251 28.9948 55.8727C26.1404 56.1163 25.6421 61.0086 25.6421 61.0086C25.6421 61.0086 25.67 56.6475 26.7225 55.4574C27.7749 54.2672 30.7609 53.8639 31.622 54.6147C32.4831 55.3655 33.4598 57.0708 33.4598 57.0708Z" fill="black"/>
<path d="M27.8701 66.9238C27.8701 66.9238 29.9272 69.2761 32.6181 69.1284C35.3091 68.9806 36.7961 66.6682 36.7961 66.6682L34.5437 70.003C34.5437 70.003 33.6347 70.9854 31.9364 70.61C30.2381 70.2386 27.8741 66.9198 27.8741 66.9198L27.8701 66.9238Z" fill="black"/>
<path d="M63.1457 44.9383C63.1457 44.9383 60.4787 43.213 55.1805 44.9822C49.8863 46.7514 47.8213 50.0742 47.8213 50.0742C47.8213 50.0742 48.7422 45.0661 54.734 43.2729C60.7258 41.4797 62.4082 43.5205 62.4082 43.5205L63.1417 44.9383H63.1457Z" fill="black"/>
<path d="M51.8901 51.4399C51.8901 51.4399 57.0368 51.7753 59.8553 50.8728C62.6738 49.9702 64.2166 48.3248 64.2206 48.6562C64.2246 48.9877 60.557 51.983 60.557 51.983L64.2485 51.4039C64.2485 51.4039 61.8406 53.6843 59.1417 53.3848C56.4428 53.0853 51.8941 51.4399 51.8941 51.4399H51.8901Z" fill="black"/>
<path d="M131.691 28.7398L142.316 1.28687L155.742 3.53134L131.691 28.7398Z" fill="#59D359"/>
<path d="M142.134 32.678L161.417 14.0991L171.639 21.1121L142.134 32.678Z" fill="#59D359"/>
<path d="M126.534 25.1338L123.572 3.3919L133.136 0.0012207L126.534 25.1338Z" fill="#59D359"/>
<path d="M70.3546 69.3915C70.7253 69.0201 74.4408 63.8043 75.7843 64.1797C77.1278 64.5551 77.4985 66.4921 76.6773 67.5385C75.8561 68.5848 73.9943 69.5553 73.9943 69.5553C73.9943 69.5553 76.454 69.7789 76.8248 70.9731C77.1955 72.1672 76.9005 74.0323 75.8561 73.9604C74.8116 73.8885 70.3506 69.3955 70.3506 69.3955L70.3546 69.3915Z" fill="black"/>
<path d="M74.6609 74.6838C75.0038 74.0967 75.7453 73.0024 75.7453 73.0024L74.5453 71.8003C74.3021 71.9001 73.0743 73.2221 72.7833 74.0088C72.4922 74.7956 73.6643 76.2653 73.5168 77.2957C73.445 77.8109 73.2975 78.2302 73.166 78.5178L72.6238 78.985L71.7906 79.6999L55.621 80.3389C54.3932 80.0673 49.2784 79.8836 47.3569 79.1767C45.6347 78.5417 42.7563 78.0145 42.7563 78.0145C42.7563 78.0145 47.6678 81.8445 48.5488 81.8206C48.5488 81.8206 67.5289 83.2304 71.9979 81.4212C73.0264 81.0058 73.6563 80.6105 74.0231 80.255C74.0231 80.255 75.3267 79.017 75.4742 77.8388C75.6217 76.6607 74.3181 75.2748 74.6609 74.6838Z" fill="black"/>
<path d="M24.4255 160.05C24.4255 160.05 43.561 166.06 50.0113 165.493C56.4656 164.926 80.1299 151.204 80.1299 151.204C80.1299 151.204 83.4149 129.086 79.9027 123.076C76.3945 117.065 68.1263 109.92 66.2048 105.384C64.2793 100.847 60.7711 95.8545 55.5606 94.0414C50.3502 92.2282 46.842 90.5269 40.615 91.3176C34.3879 92.1124 24.0866 93.3584 21.4794 99.7125C18.8762 106.062 18.3101 120.923 18.3101 120.923L24.4255 160.054V160.05Z" fill="#FF7500"/>
<path d="M67.5347 143.12C65.3102 144.73 65.7607 140.568 65.9202 140.397C65.9202 140.397 72.5419 139.374 72.0356 132.146C71.5253 124.913 65.3262 115.216 65.3262 115.216C65.3262 115.216 72.7133 124.829 73.5624 130.612C74.4116 136.395 70.421 140.904 70.421 140.904L67.5347 143.116V143.12Z" fill="black"/>
<path d="M56.1553 129.01C56.1553 129.01 57.3871 125.524 57.6781 120.731C57.9692 115.943 56.1553 111.877 56.1553 111.877C56.1553 111.877 59.4163 117.68 59.0535 120.875C58.6907 124.066 58.1844 127.988 58.1844 127.988C58.1844 127.988 59.8508 125.811 60.2854 123.635C60.7199 121.458 61.0827 120.08 61.0827 120.08C61.0827 120.08 62.0235 121.965 61.3019 124.725C60.5804 127.485 59.492 129.078 59.492 129.078L57.1559 132.002L56.1593 129.01H56.1553Z" fill="black"/>
<path d="M105.266 134.414C105.266 134.414 101.981 155.057 99.1509 157.553C96.3205 160.049 88.8496 164.131 88.8496 164.131L92.3578 158.687C92.3578 158.687 98.0187 158.46 99.1509 153.583C100.283 148.707 102.886 138.044 102.886 138.044L105.262 134.414H105.266Z" fill="black"/>
<path d="M80.7664 148.42C80.7664 148.42 83.5451 137.489 82.6601 128.815C82.2893 125.204 80.8781 122.748 79.0163 120.416C72.6777 112.476 68.2446 107.991 66.4347 102.999C64.6248 98.0071 62.8109 95.7386 58.5094 93.4702C54.2079 91.2017 36.3759 87.827 24.4879 94.6324C21.1432 96.5494 20.3817 99.2172 19.4529 103.227C18.4443 107.584 17.6948 113.024 17.5752 119.17C17.4994 123.128 18.5439 128.775 19.3173 134.622C20.8442 146.195 22.8813 159.954 22.8813 159.954L24.9783 160.221L19.7877 119.557C19.7877 119.557 21.3465 100.104 24.4002 97.2682C27.4579 94.4327 45.6885 91.5732 47.8413 92.3679C49.994 93.1627 59.6416 95.0557 62.9225 100.727C66.2075 106.398 72.6577 116.378 75.0377 118.647C77.4177 120.915 80.2442 123.978 80.9259 128.06C81.6076 132.142 79.5027 149.894 79.5027 149.894L80.7664 148.416V148.42Z" fill="black"/>
<path d="M135.643 120.599C135.596 120.068 134.232 120.412 134.523 120.3C135.416 119.948 135.723 118.367 135.352 117.728C135.141 117.361 134.2 118.023 134.001 117.728C136.217 116.877 136.178 114.485 136.074 113.694C135.783 111.502 137.015 107.811 131.493 111.094C125.685 114.553 112.282 120.763 112.282 120.763C112.282 120.763 121.037 110.016 119.203 108.61C116.978 106.909 107.111 118.399 107.111 118.399C107.111 118.399 104.548 126.426 97.0134 135.053C92.0341 140.756 83.8417 146.463 76.5024 151.203C64.3753 159.039 60.6957 158.664 60.6957 158.664L60.7076 155.672C61.182 154.566 54.4606 105.543 44.0955 102.224C33.7304 98.9055 26.6582 107.572 27.1087 112.448C27.5592 117.325 36.828 171.264 56.6373 183.293C64.6464 188.157 78.8027 171.468 78.8027 171.468L101.682 147.15C101.247 147.15 106.414 142.625 110.56 138.667C113.781 135.592 117.52 133.471 122.551 131.199C125.159 129.537 128.838 127.153 128.838 127.153L132.175 124.565C132.175 124.565 135.803 122.445 135.639 120.599H135.643Z" fill="#DD8C62"/>
<path d="M61.7564 152.442C61.7564 152.442 60.2096 143.879 58.9379 136.491C57.6662 129.102 54.6324 114.961 50.5182 108.654C46.4081 102.348 44.7736 98.9657 37.3944 100.24C30.0192 101.514 26.4592 106.446 25.7616 111.514C25.0599 116.602 33.4158 144.191 33.4158 144.191C33.4158 144.191 41.7996 173.78 51.7341 180.082C54.2895 181.704 55.2463 183.413 56.813 184.192C58.4037 184.983 60.5923 184.831 61.8162 184.795C63.1318 184.759 64.4194 184.256 66.0938 183.313C70.8577 180.633 79.0023 174.192 87.3901 165.881C95.7739 157.57 102.527 148.021 102.527 148.021L103.269 147.593C105.29 145.828 107.785 143.58 110.492 141.379C113.642 138.819 115.472 136.846 117.517 135.816C120.299 134.41 129.417 128.06 131.183 127.09C131.653 126.83 134.87 124.573 135.261 124.202C136.186 123.315 136.939 121.734 137.151 120.5C137.366 119.238 136.15 117.584 136.553 117.097C138.789 114.389 136.397 113.103 136.397 113.103C136.397 113.103 138.406 111.039 136.381 109.226C135.325 108.279 125.43 112.852 122.297 114.477C119.163 116.099 117.11 117.133 117.11 117.133C117.11 117.133 120.774 112.149 120.594 109.753C120.415 107.356 117.186 105.987 115.196 108.111C113.303 110.136 110.337 112.792 107.387 116.31C104.62 119.609 102.224 123.651 101.897 124.869C101.22 127.389 96.5792 133.703 96.5792 133.703C96.5792 133.703 88.5582 140.748 83.4354 145.093C81.49 146.747 78.2887 149.57 74.6649 151.355C73.457 151.951 68.3582 154.271 66.9509 154.874C64.7583 155.816 63.1517 155.765 62.3544 156.687L61.7365 152.438L61.7564 152.442ZM134.603 122.613C134.24 122.976 133.866 122.996 133.65 123.26C132.997 124.054 126.092 128.288 126.092 128.288C126.092 128.288 116.404 133.491 114.941 134.686C113.478 135.876 105.82 143.056 104.648 144.147C103.476 145.241 102.033 146.351 102.033 146.351C102.033 146.351 80.4415 170.134 73.2138 175.765C65.9861 181.396 62.2746 184.096 57.4868 182.275C52.6989 180.458 45.1284 169.347 45.1284 169.347C45.1284 169.347 36.031 145.581 34.3128 138.863C32.5985 132.146 26.4353 112.516 29.3096 108.359C32.1839 104.201 39.304 99.9521 43.8287 103.726C48.3575 107.5 52.6351 117.109 53.8151 121.566C54.9951 126.023 60.692 160.501 60.692 160.501C60.692 160.501 62.5657 159.419 65.5994 157.945C68.6332 156.471 78.6993 152.046 82.5464 148.855C86.3934 145.664 97.6476 135.832 97.6476 135.832C97.6476 135.832 102.567 128.963 103.54 126.319C104.512 123.675 110.7 115.032 112.334 113.535C113.969 112.037 116.472 108.567 118.023 109.337C119.574 110.108 118.828 111.206 118.529 111.654C118.234 112.101 111.134 121.934 111.134 121.934C111.134 121.934 124.812 114.869 125.765 114.597C126.718 114.326 134.699 110.132 135.5 110.436C136.297 110.739 135.042 113.131 135.042 113.131L125.047 119.733C125.047 119.733 134.695 114.461 135.253 114.561C136.226 114.733 135.879 116.187 134.998 116.858L127.487 121.299L134.862 117.824C135.683 118.487 135.373 119.805 134.787 120.16L127.702 123.974L135.309 120.616C135.636 121.071 135.428 121.798 134.607 122.621L134.603 122.613Z" fill="black"/>
<path d="M29.3329 86.1694C29.3329 86.1694 23.0899 74.4358 19.203 68.6809C15.3161 62.9259 10.1893 60.5936 10.1893 60.5936C10.1893 60.5936 1.35109 43.5843 10.1893 35.0137C19.0276 26.4471 27.0247 22.5293 33.7181 20.5923C40.4116 18.6554 50.6332 18.9909 51.889 20.5923C53.1447 22.1938 55.3732 26.8226 55.3732 26.8226C55.3732 26.8226 45.6181 38.1967 42.7517 37.7215C39.8854 37.2462 25.6413 36.0081 25.6413 36.0081C25.6413 36.0081 37.6648 37.6016 39.1279 39.1951C40.591 40.7886 41.476 47.2185 40.9458 48.6084C40.4156 49.9982 38.2947 52.4423 37.9399 54.2275C37.5851 56.0167 39.1279 61.0009 39.1279 61.0009C39.1279 61.0009 37.0629 63.517 36.7918 63.0417C36.5207 62.5665 36.3333 52.3705 29.5482 53.4048C22.763 54.4392 25.6413 61.0009 25.6413 64.156C25.6413 67.311 28.711 70.8335 27.9456 73.9526C27.1801 77.0717 29.3329 86.1614 29.3329 86.1614V86.1694Z" fill="black"/>
<path d="M15.8865 64.6392L5.41775 57.6183C5.41775 57.6183 -2.71487 45.6011 0.940824 35.0177C5.19849 22.6851 8.64289 20.0173 16.7715 16.7544C24.9041 13.4915 35.1536 13.2758 41.1654 12.565C47.1772 11.8541 58.1243 14.5658 63.1434 20.5964C68.1625 26.6269 66.7513 44.3351 66.7513 44.3351C66.7513 44.3351 64.8058 35.1815 60.3887 32.6734C55.9715 30.1693 58.5907 26.551 51.8893 30.6606C45.1879 34.7701 47.1373 31.8147 36.7961 32.6734C26.4509 33.5321 18.4977 35.8484 17.4373 37.7015C16.3769 39.5546 27.0968 45.6011 27.0968 45.6011C27.0968 45.6011 19.7894 50.4894 17.2619 54.2316C14.7344 57.9737 15.8865 64.6392 15.8865 64.6392Z" fill="black"/>
<path d="M180.036 123.335L179.689 125.963C179.689 125.963 178.083 127.341 178.151 127.141C178.218 126.942 164.062 96.4016 164.062 96.4016L180.036 123.335Z" fill="black"/>
<path d="M175.393 128.735L172.678 130.013L165.98 107.995L175.393 128.735Z" fill="black"/>
<path d="M61.3815 159.067C61.3815 159.067 60.5244 161.168 59.3404 162.873C58.1564 164.578 57.072 165.353 57.072 165.353L59.2965 161.128C59.2965 161.128 58.3916 161.962 56.9723 162.765C55.5571 163.568 54.5645 163.831 54.5645 163.831C54.5645 163.831 58.7902 160.617 59.6713 159.446C60.5523 158.28 61.3656 157.749 61.3656 157.749L61.3855 159.067H61.3815Z" fill="black"/>
<path d="M28.9489 159.059C28.7735 158.927 26.7165 158.571 26.7165 158.571L23.2681 132.76L28.9489 159.055V159.059Z" fill="black"/>
<path d="M32.815 159.458L30.431 159.059L27.0942 143.491L32.815 159.458Z" fill="black"/>
<path d="M23.9253 76.4088L27.868 87.5114L28.5577 94.0171L31.0214 92.9868L29.8294 86.9442L27.2342 74.5437L23.9253 76.4088Z" fill="black"/>
<path d="M48.7568 91.5608L47.4652 85.3865L47.1343 80.8376L49.287 81.3369L50.0963 86.5087C50.0963 86.5087 51.8703 91.9961 51.6072 91.9602C51.3401 91.9282 48.7568 91.5608 48.7568 91.5608Z" fill="black"/>
<path d="M71.1289 62.3308C71.1289 62.3308 69.9369 62.3069 69.4825 61.9115C69.028 61.5161 68.2546 60.6814 68.2546 60.6814L67.8918 59.2876C67.8918 59.2876 67.5051 61.3444 67.6367 61.7437C67.7682 62.1431 68.3343 62.7741 68.9642 62.838C69.5941 62.9059 70.212 62.838 70.212 62.838L71.1289 62.3308Z" fill="black"/>
<path d="M45.1543 80.7227L46.6493 81.5214L46.9881 86.6094L45.1543 80.7227Z" fill="black"/>
<path d="M43.2471 79.2686C43.2471 79.2686 44.4032 80.2071 44.3234 80.2271C44.2437 80.247 45.0809 84.073 45.0809 84.073L43.2471 79.2686Z" fill="black"/>
</g>
<defs>
<clipPath id="clip0_438_1108">
<rect width="183.004" height="184.834" fill="white" transform="translate(-0.00390625 0.000488281)"/>
</clipPath>
</defs>
</svg>
