<svg width="20" height="21" viewBox="0 0 20 21" fill="none" xmlns="http://www.w3.org/2000/svg">
<path d="M8.21684 12.998C8.3098 13.0918 8.4204 13.1662 8.54226 13.2169C8.66412 13.2677 8.79482 13.2938 8.92684 13.2938C9.05885 13.2938 9.18955 13.2677 9.31141 13.2169C9.43327 13.1662 9.54387 13.0918 9.63684 12.998L13.7168 8.91805C13.9051 8.72974 14.0109 8.47435 14.0109 8.20805C14.0109 7.94175 13.9051 7.68635 13.7168 7.49805C13.5285 7.30974 13.2731 7.20396 13.0068 7.20396C12.7405 7.20396 12.4851 7.30974 12.2968 7.49805L8.92684 10.878L7.71684 9.65805C7.52853 9.46974 7.27314 9.36396 7.00684 9.36396C6.74053 9.36396 6.48514 9.46974 6.29684 9.65805C6.10853 9.84635 6.00274 10.1017 6.00274 10.368C6.00274 10.6343 6.10853 10.8897 6.29684 11.078L8.21684 12.998ZM19.0068 0.248047H1.00684C0.741619 0.248047 0.487265 0.353404 0.299729 0.54094C0.112193 0.728476 0.00683594 0.98283 0.00683594 1.24805V19.248C0.00683594 19.5133 0.112193 19.7676 0.299729 19.9552C0.487265 20.1427 0.741619 20.248 1.00684 20.248H19.0068C19.2721 20.248 19.5264 20.1427 19.7139 19.9552C19.9015 19.7676 20.0068 19.5133 20.0068 19.248V1.24805C20.0068 0.98283 19.9015 0.728476 19.7139 0.54094C19.5264 0.353404 19.2721 0.248047 19.0068 0.248047ZM18.0068 18.248H2.00684V2.24805H18.0068V18.248Z" fill="white"/>
</svg>
