<svg width="183" height="169" viewBox="0 0 183 169" fill="none" xmlns="http://www.w3.org/2000/svg">
<g clip-path="url(#clip0_438_1022)">
<path d="M63.3028 133.642L54.8164 130.238L57.3598 124.007L63.3028 133.642Z" fill="black"/>
<path d="M5.35449 29.9122L33.7904 166.208L127.32 150.086L106.076 40.497L74.5202 15.5967L5.35449 29.9122Z" fill="white"/>
<path d="M32.3489 149.239L29.0308 131.453L26.1561 118.439L20.7584 100.617L5.35034 29.9121C5.35034 29.9121 76.8097 16.5203 75.8719 16.1274C75.4794 15.9589 62.6758 14.0859 62.6758 14.0859L-0.00146484 25.9875L16.7369 101.204L22.4099 120.582L27.3029 147.361L32.9606 168.209L129.028 150.8L105.974 37.593L104.654 42.2678L124.502 148.565L35.8454 164.039L32.3489 149.239Z" fill="black"/>
<path d="M75.3714 16.0305C76.5386 16.0969 105.979 37.5931 105.979 37.5931L105.158 42.3649L77.7975 48.4535L70.4019 17.1737L73.72 16.4439L74.6629 20.3992L80.1778 42.8089L100.8 39.1599L72.4916 17.0665L75.3663 16.0356L75.3714 16.0305Z" fill="black"/>
<path d="M29.0356 68.7147L29.9786 72.67L93.0535 59.4773L92.9311 56.3284L29.0356 68.7147Z" fill="black"/>
<path d="M31.877 79.6109L94.5492 65.8262L94.7021 69.1639L32.3714 82.6935L31.877 79.6109Z" fill="black"/>
<path d="M34.2109 89.8383L35.0417 93.7221L73.2893 86.8067L72.5095 82.7239L34.2109 89.8383Z" fill="black"/>
<path d="M55.5801 140.083C55.5954 140.659 59.0562 154.801 59.0562 154.801L61.2275 154.097L57.471 139.909L55.5801 140.078V140.083Z" fill="black"/>
<path d="M61.73 139.583L64.5996 153.653L66.883 153.026L63.993 138.863L61.73 139.583Z" fill="black"/>
<path d="M67.8892 138.123C67.8994 139.18 70.4427 152.056 70.4427 152.056L72.8332 151.505L70.244 137.383L67.8892 138.123Z" fill="black"/>
<path d="M74.207 136.531C74.3446 137.756 77.0206 150.801 77.0206 150.801C77.0206 150.801 78.1878 150.387 78.1368 150.106C78.0858 149.826 75.5475 135.985 75.5475 135.985L74.2121 136.526L74.207 136.531Z" fill="black"/>
<path d="M81.7444 149.897C81.8566 149.489 78.7271 135.571 78.7271 135.571L80.9697 135.24L83.8903 149.586L81.7393 149.902L81.7444 149.897Z" fill="black"/>
<path d="M88.2534 148.274L85.2563 134.035L87.0301 133.795L90.4909 148.422L88.2534 148.274Z" fill="black"/>
<path d="M90.9097 132.959C90.925 133.535 93.7945 147.601 93.7945 147.601L95.5785 146.876L92.3623 132.489L90.9148 132.959H90.9097Z" fill="black"/>
<path d="M61.4956 53.6082L61.9136 66.5508L61.9696 59.7069L61.4956 53.6082Z" fill="white"/>
<path d="M157.185 143.477V143.467L156.548 143.456L157.185 143.477Z" fill="white"/>
<path d="M130.941 29.2539L151.88 29.5346L130.202 6.01221L130.416 10.1206L130.941 29.2539Z" fill="white"/>
<path d="M126.663 5.04798C108.773 4.62949 63.4609 4.9357 63.4609 4.9357L64.0216 28.7285L65.7393 58.6661L65.6628 98.428L66.1827 120.583L66.3305 138.19L154.6 139.18L154.712 33.2452L127.086 33.2809L126.663 5.04288V5.04798Z" fill="white"/>
<path d="M61.9133 66.5508L61.7808 82.724L63.3048 141.798L156.549 143.456L64.3038 140.394L61.9133 66.5508Z" fill="black"/>
<path d="M158.431 30.3816L131.478 0.168437C122.946 -0.505235 59.6362 1.05646 59.6362 1.05646L60.4161 39.7313L61.4966 53.613L61.9706 59.7067L61.9146 66.5506L64.305 140.394L156.545 143.456L157.182 143.466L158.013 143.482L158.92 37.746L158.425 30.3816H158.431ZM151.881 29.5395L130.943 29.2537L130.418 10.1204L130.204 6.01202L151.881 29.5344V29.5395ZM154.603 139.185L66.3336 138.194L66.1858 120.587L65.6659 98.4326L65.7424 58.6707L64.0247 28.7331L63.464 4.94027C63.464 4.94027 108.776 4.63406 126.666 5.05255L127.089 33.2906L154.715 33.2549L154.603 139.19V139.185Z" fill="black"/>
<path d="M75.8569 45.121L76.0455 49.1783L140.466 48.0453L140.94 44.9321L75.8569 45.121Z" fill="black"/>
<path d="M76.611 56.3585L140.751 54.562L140.277 57.8691L76.5142 59.4767L76.611 56.3585Z" fill="black"/>
<path d="M76.9907 66.8418L77.0825 70.8073L115.947 71.1849V67.0306L76.9907 66.8418Z" fill="black"/>
<path d="M88.5937 120.205C88.5019 120.771 89.2563 135.316 89.2563 135.316L91.5193 135.03L90.4795 120.393L88.5937 120.205Z" fill="black"/>
<path d="M94.7231 120.862L94.9117 135.219L97.2665 135.03L97.0779 120.582L94.7231 120.862Z" fill="black"/>
<path d="M101.046 120.582C100.857 121.623 100.954 134.749 100.954 134.749L103.406 134.658L103.503 120.301L101.051 120.587L101.046 120.582Z" fill="black"/>
<path d="M107.556 120.205C107.46 121.435 107.648 134.75 107.648 134.75C107.648 134.75 108.877 134.561 108.877 134.275C108.877 133.989 108.973 119.919 108.973 119.919L107.556 120.205Z" fill="black"/>
<path d="M112.457 134.75C112.646 134.372 112.172 120.113 112.172 120.113L114.435 120.21L114.624 134.847L112.452 134.75H112.457Z" fill="black"/>
<path d="M119.156 134.372L118.871 119.827L120.665 119.919L121.322 134.939L119.156 134.372Z" fill="black"/>
<path d="M124.624 119.827C124.527 120.393 124.716 134.75 124.716 134.75L126.601 134.372L126.127 119.638L124.619 119.827H124.624Z" fill="black"/>
<path d="M155.246 127.145C168.079 127.145 178.483 116.491 178.483 103.347C178.483 90.204 168.079 79.5493 155.246 79.5493C142.412 79.5493 132.009 90.204 132.009 103.347C132.009 116.491 142.412 127.145 155.246 127.145Z" fill="#59D359"/>
<path d="M155.088 130.682C141.143 130.682 127.973 117.316 127.973 103.353C127.973 89.3891 140.939 77.3447 154.885 77.3447C168.83 77.3447 182.077 87.9091 182.938 101.847C183.998 119.051 169.034 130.682 155.088 130.682ZM155.088 80.9785C143.019 80.9785 132.009 91.2622 132.009 103.347C132.009 115.433 142.642 126.451 154.711 126.451C166.781 126.451 178.055 116.111 178.055 104.026C178.055 91.9409 167.153 80.9785 155.083 80.9785H155.088Z" fill="black"/>
<path d="M147.464 112.846C147.464 113.106 147.306 113.264 147.153 113.417C147.021 113.519 146.868 113.601 146.685 113.601C146.292 113.626 145.879 113.677 145.487 113.677C145.176 113.677 144.86 113.575 144.549 113.468C144.34 113.392 144.182 113.233 144.08 113.075C143.978 112.891 143.896 112.713 143.82 112.529C143.795 112.422 143.769 112.294 143.769 112.187C143.896 110.416 143.845 108.615 143.845 106.839C143.845 104.91 143.82 103.006 143.845 101.102C143.845 100.398 143.871 99.6937 143.896 98.9894C143.896 98.2851 143.922 97.5808 143.922 96.8765C143.947 96.509 143.998 96.1722 144.156 95.8609C144.391 95.4424 144.727 95.2076 145.196 95.2076C145.507 95.1821 145.823 95.2076 146.134 95.2076C146.837 95.2331 147.541 95.2331 148.27 95.2331C148.922 95.2587 149.6 95.2842 150.247 95.3097C150.482 95.3097 150.742 95.3097 150.976 95.3352H151.134C151.914 95.4934 152.668 95.7282 153.244 96.2998C153.586 96.6366 153.897 97.0041 154.08 97.4481C154.213 97.8156 154.366 98.1779 154.498 98.5454C154.549 98.673 154.605 98.8056 154.605 98.9383C154.707 99.4589 154.789 99.954 154.84 100.48C154.916 101.026 154.942 101.572 154.942 102.123C154.967 103.062 154.784 103.976 154.447 104.838C154.238 105.435 153.876 105.961 153.509 106.456C153.458 106.532 153.377 106.583 153.326 106.665C153.091 106.823 153.066 107.084 153.117 107.318C153.142 107.477 153.224 107.604 153.275 107.762C153.586 108.365 153.902 108.962 154.136 109.615C154.294 110.008 154.503 110.401 154.682 110.789C154.814 111.126 154.993 111.468 155.049 111.83C155.151 112.299 155.1 112.795 154.712 113.162C154.61 113.295 154.427 113.371 154.269 113.422C154.009 113.473 153.749 113.499 153.463 113.524C153.254 113.575 153.02 113.575 152.811 113.601C152.76 113.626 152.679 113.626 152.628 113.626C152.342 113.55 152.052 113.473 151.792 113.315C151.425 113.131 151.272 112.769 151.088 112.453C150.721 111.825 150.436 111.172 150.125 110.498C149.89 109.921 149.605 109.375 149.345 108.804C149.294 108.701 149.213 108.594 149.085 108.569C148.825 108.467 148.54 108.436 148.249 108.543C148.091 108.594 147.964 108.696 147.882 108.855C147.755 109.115 147.673 109.401 147.622 109.692C147.571 109.952 147.571 110.212 147.546 110.472V111.202C147.52 111.748 147.469 112.299 147.469 112.846H147.464ZM147.648 101.97V104.629C147.724 104.864 147.882 104.996 148.193 104.996C148.479 104.996 148.769 104.971 149.055 104.945C149.422 104.92 149.758 104.843 150.069 104.71C150.303 104.608 150.487 104.45 150.589 104.19C150.64 104.083 150.691 103.981 150.747 103.848C151.032 103.302 151.19 102.725 151.216 102.103C151.241 101.633 151.241 101.189 151.241 100.719C151.241 100.25 151.139 99.8059 150.956 99.367C150.879 99.2088 150.747 99.0761 150.589 98.9996C150.252 98.8414 149.911 98.7393 149.544 98.7138C149.049 98.6883 148.555 98.7138 148.061 98.7138C147.933 98.7138 147.852 98.7648 147.775 98.8414C147.643 99.0506 147.566 99.2599 147.566 99.4946C147.592 100.306 147.592 101.138 147.592 101.975H147.643L147.648 101.97Z" fill="black"/>
<path d="M163.755 94.9268C164.199 94.9779 164.51 95.2126 164.535 95.7638C164.535 95.8148 164.561 95.8914 164.561 95.9475C164.535 96.315 164.744 96.4936 165.029 96.6008C165.575 96.7845 166.044 97.0703 166.487 97.3816C166.722 97.5398 166.931 97.7491 167.114 97.9532C167.323 98.188 167.323 98.4738 167.247 98.7392C167.063 99.3108 166.676 99.6782 166.151 99.913C165.865 100.02 165.575 99.9896 165.315 99.8109C165.157 99.7089 164.973 99.6578 164.795 99.6017C164.428 99.4996 164.092 99.3924 163.725 99.3414C163.123 99.2648 162.578 99.3669 162.109 99.7854C161.951 99.913 161.823 100.02 161.691 100.153C161.482 100.388 161.456 100.673 161.482 100.934C161.507 101.143 161.614 101.352 161.767 101.51C161.925 101.694 162.104 101.822 162.287 101.929C162.863 102.271 163.46 102.608 164.087 102.842C164.372 102.919 164.662 103.052 164.922 103.184C165.182 103.312 165.417 103.445 165.677 103.603C166.171 103.863 166.564 104.256 166.982 104.593C167.267 104.777 167.425 105.088 167.578 105.374C167.685 105.609 167.812 105.894 167.863 106.16C167.94 106.471 167.996 106.782 168.021 107.099C168.047 108.196 167.736 109.186 167.033 110.074C166.722 110.467 166.406 110.886 165.962 111.141C165.621 111.35 165.284 111.559 164.948 111.743C164.764 111.845 164.662 111.978 164.606 112.187C164.581 112.315 164.581 112.422 164.581 112.555C164.581 112.764 164.53 112.973 164.397 113.152C164.346 113.228 164.265 113.335 164.188 113.361C163.852 113.57 163.485 113.677 163.067 113.596C162.884 113.57 162.675 113.545 162.466 113.519C161.895 113.494 161.63 112.973 161.604 112.529C161.579 112.218 161.497 112.111 161.186 112.008C160.977 111.932 160.768 111.876 160.559 111.799C160.091 111.672 159.698 111.406 159.285 111.146C159 110.962 158.791 110.676 158.684 110.365C158.475 109.712 158.5 109.033 158.786 108.41C158.969 108.017 159.306 107.839 159.724 107.783C159.8 107.757 159.882 107.757 159.958 107.757C160.116 107.757 160.269 107.808 160.376 107.941C160.585 108.15 160.794 108.334 161.054 108.487C161.523 108.722 162.017 108.905 162.537 109.008C162.98 109.084 163.424 108.931 163.842 108.722C164.051 108.645 164.209 108.487 164.362 108.329C164.571 108.094 164.571 107.808 164.52 107.517C164.494 107.308 164.387 107.124 164.234 106.946C164.076 106.788 163.923 106.685 163.74 106.578C163.164 106.236 162.593 105.899 161.941 105.69C161.681 105.583 161.395 105.455 161.135 105.323C160.875 105.19 160.615 105.063 160.356 104.904C159.861 104.644 159.469 104.251 159.051 103.914C158.791 103.736 158.607 103.445 158.475 103.159C158.342 102.899 158.215 102.613 158.138 102.322C158.062 102.031 158.036 101.75 158.006 101.434C157.98 100.311 158.291 99.321 158.995 98.433C159.153 98.2237 159.306 98.04 159.489 97.8358C159.647 97.6776 159.825 97.5245 160.009 97.3918C160.427 97.106 160.845 96.8713 161.288 96.662C161.574 96.5344 161.655 96.4528 161.625 96.1415C161.599 95.825 161.676 95.5648 161.859 95.3555C162.094 95.0697 162.354 94.8605 162.746 94.9115H162.955V94.886C163.215 94.9115 163.475 94.9115 163.735 94.937L163.755 94.9268Z" fill="black"/>
</g>
<defs>
<clipPath id="clip0_438_1022">
<rect width="182.996" height="168.209" fill="white" transform="translate(0.00390625)"/>
</clipPath>
</defs>
</svg>
