<svg width="24" height="21" viewBox="0 0 24 21" fill="none" xmlns="http://www.w3.org/2000/svg">
<path d="M20.707 0.743372C20.42 0.457384 19.991 0.371388 19.617 0.526381C19.243 0.681375 19 1.04636 19 1.45034V20.4495H21V14.4498H23C23.552 14.4498 24 14.0018 24 13.4498C24 4.14323 20.842 0.878367 20.707 0.743372ZM21 12.4499V5.69317C21.487 7.2931 21.908 9.501 21.987 12.4499H21Z" fill="#803B00"/>
<path d="M8 4.45017V0.450337H6V4.45017C6 5.18714 5.595 5.82511 5 6.1731V0.450337H3V6.1731C2.405 5.82511 2 5.18814 2 4.45017V0.450337H0V4.45017C0 6.30809 1.28 7.86003 3 8.30801V20.4495H5V8.30801C6.72 7.86003 8 6.30809 8 4.45017Z" fill="#803B00"/>
<path d="M12 7.45009C8.691 7.45009 6 10.141 6 13.4498C6 16.7587 8.691 19.4496 12 19.4496C15.309 19.4496 18 16.7587 18 13.4498C18 10.141 15.309 7.45009 12 7.45009ZM12 17.4497C9.794 17.4497 8 15.6557 8 13.4498C8 11.2449 9.794 9.45001 12 9.45001C14.206 9.45001 16 11.2449 16 13.4498C16 15.6557 14.206 17.4497 12 17.4497Z" fill="#803B00"/>
<path d="M13.5 11.4499C12.672 11.4499 12 12.1219 12 12.9498C12 12.1219 11.328 11.4499 10.5 11.4499C9.672 11.4499 9 12.1219 9 12.9498C9 14.4498 12 16.4497 12 16.4497C12 16.4497 15 14.4498 15 12.9498C15 12.1219 14.328 11.4499 13.5 11.4499Z" fill="#803B00"/>
</svg>
