<svg width="248" height="498" viewBox="0 0 248 498" fill="none" xmlns="http://www.w3.org/2000/svg">
<path d="M235.898 327.113C254.336 289.033 245.978 253.54 239.869 239.657C225.343 206.62 210.386 195.563 193.33 180.544C179.072 167.97 157.419 161.53 141.278 140.66C141.195 140.553 141.111 140.445 141.027 140.338C140.943 140.231 140.859 140.124 140.775 140.016C124.38 119.35 123.67 97.2296 114.987 80.4855C104.611 60.4694 97.5986 43.4689 68.7683 21.1324C56.6541 11.7414 23.7867 -5.41711 -18.6352 2.03124C-77.0859 12.2894 -93.7781 58.4919 -154.439 127.948C-210.66 192.434 -258.533 220.831 -272.532 268.576C-286.532 316.322 -276.744 363.719 -234.44 419.866C-234.22 420.147 -234.003 420.442 -233.792 420.729C-233.572 421.009 -233.338 421.291 -233.11 421.565C-188.706 476.142 -144.471 497.757 -93.6567 497.031C-42.8489 496.296 -2.29895 458.546 76.0713 422.349C160.524 383.262 210.497 379.581 235.898 327.113Z" fill="#59D359"/>
</svg>
