<svg width="471" height="494" viewBox="0 0 471 494" fill="none" xmlns="http://www.w3.org/2000/svg">
<path d="M468.52 260.24C476.823 220.599 461.671 189.058 453.199 177.323C433.051 149.394 417.261 142.184 398.735 131.7C383.243 122.919 362.449 121.46 343.481 105.291C343.382 105.208 343.284 105.126 343.186 105.043C343.087 104.96 342.989 104.877 342.89 104.794C323.737 88.8708 318.326 68.2609 306.93 54.3854C293.311 37.7977 283.358 23.3275 252.701 8.46979C239.818 2.22155 206.661 -6.92185 170.254 9.05126C120.09 31.0555 115.106 77.9508 75.7403 155.98C39.2809 228.404 2.51156 265.192 0.273263 312.965C-1.96503 360.738 17.0376 403.148 67.0673 446.884C67.3246 447.1 67.5833 447.331 67.8344 447.555C68.0916 447.772 68.3627 447.987 68.6262 448.196C120.199 490.013 164.504 500.933 209.882 489.491C255.253 478.042 283.441 434.028 345.856 383.462C413.098 328.896 457.084 314.86 468.52 260.24Z" fill="#E80537"/>
</svg>
