<svg width="99" height="99" viewBox="0 0 99 99" fill="none" xmlns="http://www.w3.org/2000/svg">
<rect width="99" height="99" rx="14" fill="#FFAC66"/>
<path d="M72.8033 29.4028C69.7815 26.347 65.7758 24.4819 61.5098 24.1445C57.2437 23.807 52.9987 25.0194 49.5414 27.5626C45.9143 24.8416 41.3997 23.6078 36.9068 24.1096C32.4139 24.6114 28.2763 26.8115 25.3273 30.267C22.3783 33.7225 20.837 38.1766 21.0137 42.7324C21.1904 47.2882 23.0719 51.6073 26.2795 54.8198L43.9825 72.7038C45.465 74.1753 47.4615 75 49.5414 75C51.6214 75 53.6179 74.1753 55.1004 72.7038L72.8033 54.8198C76.1318 51.4422 78 46.8735 78 42.1113C78 37.3491 76.1318 32.7804 72.8033 29.4028ZM68.7838 50.852L51.0808 68.7072C50.8794 68.9124 50.6396 69.0752 50.3754 69.1864C50.1112 69.2975 49.8277 69.3548 49.5414 69.3548C49.2552 69.3548 48.9717 69.2975 48.7075 69.1864C48.4433 69.0752 48.2035 68.9124 48.002 68.7072L30.299 50.7658C28.0634 48.4608 26.8115 45.3645 26.8115 42.1401C26.8115 38.9156 28.0634 35.8193 30.299 33.5144C32.5772 31.2458 35.6498 29.9737 38.8512 29.9737C42.0527 29.9737 45.1252 31.2458 47.4034 33.5144C47.6684 33.7838 47.9837 33.9977 48.3311 34.1437C48.6785 34.2897 49.0511 34.3648 49.4274 34.3648C49.8037 34.3648 50.1763 34.2897 50.5237 34.1437C50.8711 33.9977 51.1864 33.7838 51.4514 33.5144C53.7296 31.2458 56.8022 29.9737 60.0036 29.9737C63.205 29.9737 66.2776 31.2458 68.5558 33.5144C70.8222 35.7891 72.1152 38.8686 72.1578 42.0932C72.2004 45.3177 70.9893 48.4309 68.7838 50.7658V50.852Z" fill="#FF7500"/>
</svg>
