<svg width="16" height="21" viewBox="0 0 16 21" fill="none" xmlns="http://www.w3.org/2000/svg">
<path d="M13 7.4519V5.4519C13 4.12582 12.4732 2.85405 11.5355 1.91637C10.5979 0.978688 9.32608 0.451904 8 0.451904C6.67392 0.451904 5.40215 0.978688 4.46447 1.91637C3.52678 2.85405 3 4.12582 3 5.4519V7.4519C2.20435 7.4519 1.44129 7.76797 0.87868 8.33058C0.316071 8.89319 0 9.65625 0 10.4519V17.4519C0 18.2476 0.316071 19.0106 0.87868 19.5732C1.44129 20.1358 2.20435 20.4519 3 20.4519H13C13.7956 20.4519 14.5587 20.1358 15.1213 19.5732C15.6839 19.0106 16 18.2476 16 17.4519V10.4519C16 9.65625 15.6839 8.89319 15.1213 8.33058C14.5587 7.76797 13.7956 7.4519 13 7.4519ZM5 5.4519C5 4.65625 5.31607 3.89319 5.87868 3.33058C6.44129 2.76797 7.20435 2.4519 8 2.4519C8.79565 2.4519 9.55871 2.76797 10.1213 3.33058C10.6839 3.89319 11 4.65625 11 5.4519V7.4519H5V5.4519ZM14 17.4519C14 17.7171 13.8946 17.9715 13.7071 18.159C13.5196 18.3465 13.2652 18.4519 13 18.4519H3C2.73478 18.4519 2.48043 18.3465 2.29289 18.159C2.10536 17.9715 2 17.7171 2 17.4519V10.4519C2 10.1867 2.10536 9.93233 2.29289 9.7448C2.48043 9.55726 2.73478 9.4519 3 9.4519H13C13.2652 9.4519 13.5196 9.55726 13.7071 9.7448C13.8946 9.93233 14 10.1867 14 10.4519V17.4519Z" fill="#803B00"/>
</svg>
