<svg width="99" height="99" viewBox="0 0 99 99" fill="none" xmlns="http://www.w3.org/2000/svg">
<rect width="99" height="99" rx="14" fill="#9CE59C"/>
<path d="M50.4891 49.6988C52.1649 48.2317 53.509 46.4172 54.4302 44.3783C55.3514 42.3395 55.8282 40.124 55.8282 37.8824C55.8282 33.6701 54.1737 29.6304 51.2288 26.6518C48.2839 23.6733 44.2898 22 40.125 22C35.9603 22 31.9661 23.6733 29.0212 26.6518C26.0763 29.6304 24.4219 33.6701 24.4219 37.8824C24.4219 40.124 24.8986 42.3395 25.8199 44.3783C26.7411 46.4172 28.0852 48.2317 29.761 49.6988C25.3645 51.7123 21.6345 54.9639 19.0168 59.0648C16.3991 63.1657 15.0046 67.9423 15 72.8235C15 73.666 15.3309 74.4739 15.9199 75.0696C16.5089 75.6653 17.3077 76 18.1406 76C18.9736 76 19.7724 75.6653 20.3614 75.0696C20.9504 74.4739 21.2813 73.666 21.2813 72.8235C21.2813 67.7688 23.2666 62.9211 26.8005 59.3469C30.3344 55.7727 35.1273 53.7647 40.125 53.7647C45.1227 53.7647 49.9157 55.7727 53.4496 59.3469C56.9835 62.9211 58.9688 67.7688 58.9688 72.8235C58.9688 73.666 59.2997 74.4739 59.8887 75.0696C60.4776 75.6653 61.2765 76 62.1094 76C62.9424 76 63.7412 75.6653 64.3302 75.0696C64.9192 74.4739 65.25 73.666 65.25 72.8235C65.2454 67.9423 63.8509 63.1657 61.2332 59.0648C58.6156 54.9639 54.8855 51.7123 50.4891 49.6988ZM40.125 47.4118C38.2616 47.4118 36.4399 46.8529 34.8905 45.8058C33.3411 44.7587 32.1335 43.2704 31.4203 41.5291C30.7072 39.7878 30.5206 37.8718 30.8842 36.0233C31.2477 34.1747 32.1451 32.4768 33.4627 31.144C34.7804 29.8113 36.4592 28.9037 38.2869 28.536C40.1146 28.1684 42.009 28.3571 43.7306 29.0783C45.4522 29.7996 46.9237 31.021 47.959 32.5881C48.9943 34.1552 49.5469 35.9976 49.5469 37.8824C49.5469 40.4097 48.5542 42.8336 46.7873 44.6207C45.0204 46.4078 42.6239 47.4118 40.125 47.4118ZM70.7147 48.4282C72.7246 46.139 74.0376 43.3111 74.4954 40.2848C74.9533 37.2586 74.5367 34.1629 73.2956 31.3706C72.0546 28.5782 70.042 26.2082 67.5002 24.5457C64.9584 22.8832 61.9958 21.9992 58.9688 22C58.1358 22 57.337 22.3347 56.748 22.9304C56.1591 23.5261 55.8282 24.334 55.8282 25.1765C55.8282 26.0189 56.1591 26.8269 56.748 27.4226C57.337 28.0183 58.1358 28.3529 58.9688 28.3529C61.4676 28.3529 63.8641 29.3569 65.6311 31.144C67.398 32.9312 68.3907 35.355 68.3907 37.8824C68.3862 39.5508 67.9488 41.1888 67.1221 42.6325C66.2953 44.0763 65.1083 45.2752 63.6797 46.1094C63.2141 46.3811 62.8252 46.7691 62.5503 47.2362C62.2753 47.7034 62.1235 48.2342 62.1094 48.7776C62.0963 49.3169 62.2191 49.8506 62.4664 50.3286C62.7137 50.8065 63.0772 51.2129 63.5227 51.5094L64.7476 52.3353L65.1558 52.5576C68.9415 54.3737 72.1353 57.2461 74.3609 60.8365C76.5866 64.427 77.7515 68.5859 77.7183 72.8235C77.7183 73.666 78.0492 74.4739 78.6382 75.0696C79.2272 75.6653 80.026 76 80.859 76C81.6919 76 82.4907 75.6653 83.0797 75.0696C83.6687 74.4739 83.9996 73.666 83.9996 72.8235C84.0253 67.949 82.8182 63.1488 80.493 58.879C78.1678 54.6092 74.8018 51.0117 70.7147 48.4282Z" fill="#59D359"/>
</svg>
