<svg width="20" height="21" viewBox="0 0 20 21" fill="none" xmlns="http://www.w3.org/2000/svg">
<path d="M17.5211 11.4838C17.3003 11.4838 17.0694 11.4133 16.8487 11.363C16.4015 11.2642 15.9621 11.133 15.5339 10.9704C15.0684 10.8006 14.5566 10.8094 14.0971 10.9952C13.6376 11.181 13.2629 11.5307 13.045 11.9769L12.8242 12.4299C11.8467 11.8845 10.9485 11.2072 10.1546 10.4168C9.36656 9.62069 8.69119 8.71983 8.14742 7.73947L8.56893 7.45765C9.01389 7.23915 9.36256 6.86332 9.54784 6.4025C9.73312 5.94167 9.74191 5.4284 9.57253 4.96146C9.41318 4.53109 9.28243 4.09061 9.18113 3.64291C9.13095 3.42148 9.0908 3.18998 9.0607 2.95847C8.93882 2.2495 8.56855 1.60746 8.01657 1.14797C7.46458 0.688492 6.76716 0.441765 6.04989 0.452224H3.03908C2.60656 0.448151 2.17824 0.537591 1.78328 0.714454C1.38832 0.891318 1.036 1.15145 0.750291 1.47715C0.464586 1.80285 0.252207 2.18646 0.127613 2.60188C0.00301953 3.01729 -0.0308643 3.45475 0.0282687 3.88448C0.562926 8.1012 2.48311 12.0191 5.48551 15.0193C8.48791 18.0195 12.4014 19.931 16.6078 20.4519H16.9892C17.7292 20.453 18.4438 20.1807 18.9964 19.6869C19.3139 19.4021 19.5675 19.053 19.7405 18.6626C19.9135 18.2722 20.0019 17.8495 20 17.4223V14.4027C19.9877 13.7035 19.7338 13.0303 19.2817 12.498C18.8296 11.9657 18.2073 11.6072 17.5211 11.4838V11.4838ZM18.0229 17.5229C18.0227 17.6658 17.9922 17.8071 17.9333 17.9372C17.8745 18.0674 17.7887 18.1835 17.6816 18.2778C17.5695 18.3749 17.4384 18.4474 17.2967 18.4908C17.1549 18.5341 17.0058 18.5473 16.8587 18.5294C13.1001 18.0461 9.6089 16.3216 6.93578 13.6279C4.26267 10.9343 2.55977 7.42477 2.09569 3.65298C2.07972 3.50554 2.09372 3.35638 2.13684 3.21453C2.17996 3.07267 2.25132 2.94105 2.34659 2.82763C2.44064 2.72026 2.55641 2.63421 2.68619 2.57521C2.81597 2.5162 2.9568 2.48559 3.09929 2.48541H6.1101C6.34349 2.4802 6.57138 2.55675 6.75456 2.70188C6.93774 2.84701 7.06474 3.05165 7.11371 3.28056C7.15385 3.55568 7.20403 3.82744 7.26425 4.09585C7.38018 4.62643 7.53448 5.14785 7.7259 5.65596L6.32086 6.31021C6.20073 6.36549 6.09266 6.44402 6.00288 6.5413C5.91309 6.63858 5.84335 6.75269 5.79765 6.87708C5.75196 7.00146 5.73121 7.13368 5.73661 7.26613C5.74201 7.39858 5.77343 7.52865 5.82909 7.64889C7.27348 10.7518 9.76045 13.246 12.8543 14.6946C13.0987 14.7952 13.3727 14.7952 13.6171 14.6946C13.7422 14.6497 13.8572 14.5803 13.9554 14.4904C14.0536 14.4006 14.1331 14.2921 14.1891 14.1712L14.8113 12.762C15.3302 12.9481 15.8597 13.1027 16.397 13.225C16.6647 13.2854 16.9356 13.3358 17.21 13.376C17.4382 13.4251 17.6422 13.5525 17.787 13.7362C17.9317 13.9199 18.008 14.1485 18.0028 14.3825L18.0229 17.5229Z" fill="#803B00"/>
</svg>
