<svg width="119" height="193" viewBox="0 0 119 193" fill="none" xmlns="http://www.w3.org/2000/svg">
<g clip-path="url(#clip0_438_1080)">
<path d="M73.0615 3.01318C72.2447 4.08316 56.1919 62.6463 56.1919 62.6463L61.9101 90.5723L71.432 94.6945L97.5555 68.5418L115.987 20.687L83.9321 9.13038L73.0615 3.01318Z" fill="#E80537"/>
<path d="M81.7564 29.2695L67.4565 70.7898L74.983 77.2395L92.9716 33.7541L81.7564 29.2695Z" fill="#FFCB2E"/>
<path d="M84.1781 107.501C79.5065 102.82 74.4775 99.3416 69.2315 97.1633C64.2238 95.0831 58.3822 94.0728 51.3705 94.0728C45.6438 94.0728 39.0278 94.3925 33.3394 96.7541C27.8041 99.056 22.5411 102.616 18.112 107.049C14.4658 110.702 11.4237 115.643 8.54757 122.6C5.91395 128.964 4.6333 134.775 4.6333 140.372C4.6333 145.969 5.89693 151.229 8.72626 158.067C11.0536 163.685 14.4232 168.732 18.7417 173.059C23.8855 178.213 28.5742 181.564 33.4925 183.61C39.7128 186.193 45.7289 187.506 51.3663 187.506C57.0037 187.506 62.7517 186.202 69.206 183.52C74.9583 181.129 80.0553 177.736 84.3568 173.422C88.2923 169.478 91.4875 164.47 94.1169 158.109C96.6186 152.065 97.8355 146.263 97.8355 140.367C97.8355 133.794 96.7207 127.771 94.5211 122.459C92.3682 117.254 88.8879 112.224 84.1696 107.501H84.1781ZM26.8893 164.896C26.8893 164.896 19.9968 161.515 16.6144 155.194C13.2319 148.872 9.37297 138.858 15.2401 135.486C21.1115 132.11 23.1155 138.193 25.5151 145.193C30.5228 159.793 26.8893 164.9 26.8893 164.9V164.896ZM38.1429 137.302C38.3215 137.319 40.1255 138.134 42.5847 139.28L51.3407 118.848C50.1877 118.78 42.3167 115.319 42.3167 115.319L55.1784 107.104L66.4447 111.887L51.9704 143.718C55.5103 145.406 58.3354 146.766 58.3354 146.766L54.8721 153.339L33.8967 143.224L38.1386 137.302H38.1429ZM63.4877 173.055C56.5782 174.935 49.3921 172.237 49.3921 172.237C49.3921 172.237 50.6004 166.085 64.6322 159.699C71.3546 156.643 77.1451 153.923 78.7279 160.518C80.3106 167.113 70.4015 171.175 63.4877 173.055ZM76.2432 140.372L62.1348 133.751C62.1348 133.751 64.7514 127.664 64.7812 127.357L79.7064 133.798L76.2432 140.376V140.372ZM79.7149 128.598C76.5027 131.884 69.4272 128.615 69.3719 123.815C69.3166 119.015 75.4773 117.744 75.7964 117.987C75.7964 117.987 79.081 118.235 80.9318 120.098C82.7825 121.956 82.9272 125.311 79.7149 128.598Z" fill="#FFCB2E"/>
<path d="M76.1671 120.921C75.8693 120.793 72.8485 123.406 73.959 124.953C75.0694 126.501 78.4689 125.478 78.32 122.801C78.1668 120.123 76.1671 120.921 76.1671 120.921Z" fill="#FFCB2E"/>
<path d="M87.4564 104.219C83.4613 100.216 79.1982 97.0189 74.7478 94.6572L99.5354 69.8389L118.996 19.307L84.8909 7.00863L72.4333 0.000488281L71.2122 1.60759C70.8591 2.07224 70.123 3.03991 53.9511 62.0379L53.8022 62.575L59.3971 89.9042C56.8741 89.5887 54.2064 89.431 51.3686 89.431C45.1866 89.431 38.0005 89.7933 31.5632 92.4661C25.4706 94.9983 19.6843 98.9073 14.834 103.767C10.741 107.868 7.3841 113.286 4.26545 120.823C1.39357 127.763 -0.00195312 134.157 -0.00195312 140.372C-0.00195312 148.199 2.53381 155.237 4.44415 159.849C7.00544 166.035 10.7112 171.585 15.4637 176.346C21.0543 181.948 26.2194 185.618 31.7164 187.903C38.5025 190.725 45.1143 192.153 51.3686 192.153C57.6229 192.153 63.9538 190.734 70.9825 187.813C77.3006 185.192 82.904 181.453 87.6351 176.709C92.0089 172.326 95.5317 166.823 98.4036 159.892C101.105 153.365 102.475 146.796 102.475 140.372C102.475 133.185 101.241 126.565 98.8078 120.682C96.421 114.914 92.6003 109.373 87.4522 104.219H87.4564ZM51.3728 187.507C45.7312 187.507 39.7194 186.194 33.4991 183.61C28.5807 181.568 23.8921 178.214 18.7482 173.06C14.4298 168.733 11.0601 163.686 8.73282 158.067C5.90349 151.23 4.63986 145.773 4.63986 140.372C4.63986 134.971 5.92051 128.965 8.55413 122.6C11.4345 115.643 14.4723 110.703 18.1186 107.049C22.5434 102.616 27.8106 99.0522 33.3459 96.7546C39.0301 94.3929 45.6503 94.0732 51.3771 94.0732C58.3887 94.0732 64.2304 95.0835 69.2381 97.1638C74.484 99.3421 79.513 102.821 84.1846 107.501C88.8988 112.224 92.3833 117.259 94.5362 122.46C96.7358 127.771 97.8505 133.795 97.8505 140.368C97.8505 146.259 96.6337 152.065 94.132 158.11C91.4984 164.47 88.3074 169.479 84.3718 173.422C80.0704 177.732 74.9733 181.129 69.221 183.521C62.7668 186.202 56.9336 187.507 51.3813 187.507H51.3728ZM58.5717 62.7284C63.9623 43.0724 71.7951 14.8438 74.3564 6.41183L82.7891 11.1564L112.963 22.0693L95.5615 67.2471L70.9016 91.9375L63.9325 88.9237L58.5717 62.7284Z" fill="black"/>
<path d="M66.4493 111.887L55.1831 107.104L42.3213 115.319C42.3213 115.319 50.1881 118.78 51.3454 118.848L42.5893 139.28C45.3463 140.563 48.9245 142.264 51.9793 143.718L66.4536 111.887H66.4493Z" fill="black"/>
<path d="M15.2439 135.487C9.37253 138.863 13.2315 148.872 16.6182 155.194C20.0006 161.516 26.8931 164.896 26.8931 164.896C26.8931 164.896 30.5266 159.789 25.5189 145.189C23.1193 138.193 21.1153 132.11 15.2439 135.482V135.487ZM22.3194 155.97L17.7669 154.098L22.0854 154.942L18.8689 147.069L15.312 145.381L18.7923 146.165L16.8777 138.402L19.5028 145.786L22.362 141.898C22.362 141.898 19.7113 146.749 19.6943 146.907C19.6773 147.06 22.9491 154.58 22.9491 154.58L25.136 151.575L23.0555 155.769L25.6891 162.671C25.3742 162.415 22.3151 155.974 22.3151 155.974L22.3194 155.97Z" fill="black"/>
<path d="M25.1428 151.575L22.9559 154.58C22.9559 154.58 19.6884 147.064 19.7011 146.907C19.7181 146.753 22.3688 141.898 22.3688 141.898L19.5097 145.786L16.8846 138.402L18.7991 146.165L15.3188 145.381L18.8757 147.069L22.0922 154.942L17.7738 154.098L22.3262 155.97C22.3262 155.97 25.3853 162.415 25.7002 162.667L23.0665 155.765L25.1471 151.57L25.1428 151.575Z" fill="#FFCB2E"/>
<path d="M64.6327 159.7C50.6009 166.085 49.3926 172.237 49.3926 172.237C49.3926 172.237 56.5787 174.935 63.4882 173.055C70.3977 171.175 80.3111 167.113 78.7283 160.518C77.1456 153.923 71.355 156.643 64.6327 159.7ZM71.4997 167.262L67.8322 165.83L59.9143 168.895L63.4925 171.461L59.0081 169.432C59.0081 169.432 52.2347 171.631 51.8305 171.576L58.6422 168.754L60.2547 164.359L59.5739 168.016C59.5739 168.016 67.2706 165.233 67.3727 165.113C67.4748 164.994 69.1724 159.729 69.1724 159.729L68.3172 164.487L75.4778 161.328L68.5342 165.267L71.4954 167.262H71.4997Z" fill="black"/>
<path d="M68.3217 164.491L69.1769 159.734C69.1769 159.734 67.4793 164.999 67.3772 165.118C67.2751 165.237 59.5784 168.021 59.5784 168.021L60.2592 164.363L58.6466 168.758L51.835 171.58C52.2349 171.636 59.0125 169.436 59.0125 169.436L63.4969 171.465L59.9188 168.899L67.8367 165.834L71.5042 167.266L68.5429 165.271L75.4865 161.332L68.3259 164.491H68.3217Z" fill="#FFCB2E"/>
<path d="M58.3457 146.767C58.3457 146.767 55.5164 145.407 51.9808 143.719L50.3215 147.372L41.1698 142.593L42.5866 139.281C40.1274 138.134 38.3234 137.32 38.1447 137.303L33.9028 143.224L54.8782 153.34L58.3415 146.767H58.3457Z" fill="black"/>
<path d="M50.314 147.372L51.9733 143.718C48.9185 142.261 45.3403 140.564 42.5833 139.281L41.1665 142.593L50.3182 147.372H50.314Z" fill="black"/>
<path d="M62.1396 133.751L76.248 140.371L79.7113 133.793L64.786 127.352C64.7605 127.659 62.1396 133.746 62.1396 133.746V133.751Z" fill="black"/>
<path d="M75.7999 117.987C75.4808 117.744 69.3201 119.01 69.3754 123.815C69.4307 128.615 76.5019 131.884 79.7184 128.598C82.9307 125.315 82.786 121.96 80.9352 120.097C79.0845 118.239 75.7999 117.987 75.7999 117.987ZM73.9576 124.949C72.8472 123.401 75.8637 120.788 76.1658 120.916C76.1658 120.916 78.1655 120.119 78.3186 122.796C78.4718 125.473 75.0723 126.496 73.9576 124.949Z" fill="black"/>
</g>
<defs>
<clipPath id="clip0_438_1080">
<rect width="118.998" height="192.153" fill="white" transform="translate(0.00195312 0.000488281)"/>
</clipPath>
</defs>
</svg>
