<svg width="21" height="20" viewBox="0 0 21 20" fill="none" xmlns="http://www.w3.org/2000/svg">
<path d="M19.9868 7.35813C19.9236 7.17522 19.8088 7.01456 19.6561 6.89564C19.5035 6.77671 19.3196 6.70463 19.1268 6.68813L13.4368 5.85813L10.8868 0.688133C10.8049 0.519062 10.6771 0.376475 10.5179 0.276707C10.3587 0.176938 10.1747 0.124023 9.98679 0.124023C9.79894 0.124023 9.61488 0.176938 9.4557 0.276707C9.29653 0.376475 9.16868 0.519062 9.08679 0.688133L6.53679 5.84813L0.846794 6.68813C0.661716 6.71444 0.487718 6.7921 0.344544 6.91229C0.20137 7.03249 0.0947538 7.19041 0.0367938 7.36813C-0.0162612 7.54181 -0.0210222 7.72665 0.0230216 7.90283C0.0670654 8.079 0.158251 8.23986 0.286794 8.36813L4.41679 12.3681L3.41679 18.0481C3.38109 18.2356 3.39979 18.4294 3.47067 18.6066C3.54154 18.7838 3.66165 18.937 3.81679 19.0481C3.96801 19.1562 4.14637 19.2201 4.33184 19.2324C4.51732 19.2448 4.70256 19.2052 4.86679 19.1181L9.98679 16.4481L15.0868 19.1281C15.2271 19.2073 15.3857 19.2487 15.5468 19.2481C15.7586 19.2489 15.9652 19.1824 16.1368 19.0581C16.2919 18.947 16.412 18.7938 16.4829 18.6166C16.5538 18.4394 16.5725 18.2456 16.5368 18.0581L15.5368 12.3781L19.6668 8.37813C19.8112 8.25581 19.9179 8.09504 19.9745 7.91448C20.0312 7.73393 20.0354 7.54101 19.9868 7.35813ZM13.8368 11.3581C13.7195 11.4716 13.6318 11.612 13.5812 11.7671C13.5307 11.9222 13.5189 12.0874 13.5468 12.2481L14.2668 16.4381L10.5068 14.4381C10.3621 14.3611 10.2007 14.3208 10.0368 14.3208C9.87288 14.3208 9.71148 14.3611 9.56679 14.4381L5.80679 16.4381L6.52679 12.2481C6.55473 12.0874 6.54291 11.9222 6.49236 11.7671C6.44181 11.612 6.35407 11.4716 6.23679 11.3581L3.23679 8.35813L7.44679 7.74813C7.60879 7.7256 7.76279 7.66367 7.89529 7.56779C8.02779 7.4719 8.13475 7.34497 8.20679 7.19813L9.98679 3.38813L11.8668 7.20813C11.9388 7.35497 12.0458 7.4819 12.1783 7.57779C12.3108 7.67367 12.4648 7.7356 12.6268 7.75813L16.8368 8.36813L13.8368 11.3581Z" fill="white"/>
</svg>
