<svg width="20" height="12" viewBox="0 0 20 12" fill="none" xmlns="http://www.w3.org/2000/svg">
<path d="M19.9269 0.850533C19.8254 0.613086 19.6313 0.424396 19.387 0.325787C19.2668 0.275993 19.1378 0.249582 19.0071 0.248047H14.0086C13.7434 0.248047 13.4892 0.350428 13.3017 0.532667C13.1142 0.714906 13.0089 0.962075 13.0089 1.2198C13.0089 1.47752 13.1142 1.72469 13.3017 1.90693C13.4892 2.08917 13.7434 2.19155 14.0086 2.19155H16.5978L11.0094 7.62365L7.7204 4.41687C7.62746 4.32579 7.51689 4.25349 7.39507 4.20416C7.27324 4.15482 7.14258 4.12942 7.0106 4.12942C6.87863 4.12942 6.74796 4.15482 6.62614 4.20416C6.50431 4.25349 6.39375 4.32579 6.30081 4.41687L0.302548 10.2474C0.208847 10.3377 0.134475 10.4452 0.0837206 10.5636C0.0329666 10.682 0.00683594 10.809 0.00683594 10.9373C0.00683594 11.0656 0.0329666 11.1926 0.0837206 11.311C0.134475 11.4295 0.208847 11.5369 0.302548 11.6273C0.395485 11.7184 0.506054 11.7906 0.627878 11.84C0.749702 11.8893 0.880369 11.9147 1.01234 11.9147C1.14432 11.9147 1.27498 11.8893 1.39681 11.84C1.51863 11.7906 1.6292 11.7184 1.72214 11.6273L7.0106 6.47698L10.2996 9.68377C10.3926 9.77485 10.5032 9.84714 10.625 9.89647C10.7468 9.94581 10.8775 9.97121 11.0094 9.97121C11.1414 9.97121 11.2721 9.94581 11.3939 9.89647C11.5157 9.84714 11.6263 9.77485 11.7192 9.68377L18.0074 3.56172V6.07856C18.0074 6.33629 18.1127 6.58346 18.3002 6.7657C18.4877 6.94793 18.742 7.05032 19.0071 7.05032C19.2723 7.05032 19.5265 6.94793 19.714 6.7657C19.9015 6.58346 20.0068 6.33629 20.0068 6.07856V1.2198C20.0053 1.09281 19.9781 0.96736 19.9269 0.850533V0.850533Z" fill="white"/>
</svg>
