<svg width="268" height="485" viewBox="0 0 268 485" fill="none" xmlns="http://www.w3.org/2000/svg">
<path d="M16.735 192.916C47.4001 240.285 110.859 251.895 158.487 218.709C168.122 211.858 179.986 209.145 191.584 211.152C202.876 213.164 212.853 219.881 219.141 229.725C225.514 239.656 227.703 251.774 225.181 263.311C222.601 275.147 215.723 285.517 205.898 292.293C158.264 325.513 144.608 391.484 175.338 439.214C206.081 486.964 269.488 498.233 317.129 465.067C372.695 426.32 411.503 367.122 425.565 299.69C440.062 234.279 427.872 165.503 391.831 109.18C356.09 53.4927 299.379 15.4881 235.346 4.29421C169.578 -7.7537 101.974 7.09531 47.1131 45.6266C-0.377991 79.068 -14.0538 145.053 16.7545 192.903L16.735 192.916Z" fill="#F18184"/>
</svg>
