<svg width="472" height="329" viewBox="0 0 472 329" fill="none" xmlns="http://www.w3.org/2000/svg">
<g clip-path="url(#clip0_497_333)">
<path d="M482.51 14.7027C417.176 -12.0619 358.317 3.94236 335.52 14.7552C281.272 40.4676 263.92 65.2572 240.091 93.7027C220.141 117.484 211.066 152.67 177.352 180.077C177.179 180.219 177.006 180.362 176.833 180.504C176.66 180.647 176.486 180.789 176.313 180.932C142.961 208.733 105.919 211.493 78.5297 226.643C45.7879 244.747 17.8352 257.236 -17.3267 305.095C-32.1106 325.205 -58.2666 379.156 -42.3925 446.618C-20.5279 539.57 58.2895 562.939 179.611 655.091C292.244 740.488 343.686 815.151 424.876 834.09C506.067 853.029 584.777 833.859 675.569 761.918C676.022 761.545 676.499 761.175 676.963 760.815C677.416 760.443 677.871 760.046 678.312 759.66C766.303 684.468 799.027 611.967 793.757 530.557C788.473 449.158 721.93 386.921 654.974 263.939C582.688 131.416 572.53 51.5729 482.51 14.7027Z" fill="#E80537"/>
</g>
<defs>
<clipPath id="clip0_497_333">
<rect width="472" height="329" fill="white"/>
</clipPath>
</defs>
</svg>
