<svg width="520" height="330" viewBox="0 0 520 330" fill="none" xmlns="http://www.w3.org/2000/svg">
<path d="M530.51 14.7027C465.176 -12.0619 406.317 3.94236 383.52 14.7552C329.272 40.4676 311.92 65.2572 288.091 93.7027C268.141 117.484 259.066 152.67 225.352 180.077C225.179 180.219 225.006 180.362 224.833 180.504C224.66 180.647 224.486 180.789 224.313 180.932C190.961 208.733 153.919 211.493 126.53 226.643C93.7879 244.747 65.8352 257.236 30.6733 305.095C15.8894 325.205 -10.2666 379.156 5.60752 446.618C27.4721 539.57 106.29 562.939 227.611 655.091C340.244 740.488 391.686 815.151 472.876 834.09C554.067 853.029 632.777 833.859 723.569 761.918C724.022 761.545 724.499 761.175 724.963 760.815C725.416 760.443 725.871 760.046 726.312 759.66C814.303 684.468 847.027 611.967 841.757 530.557C836.473 449.158 769.93 386.921 702.974 263.939C630.688 131.416 620.53 51.5729 530.51 14.7027Z" fill="#E80537"/>
</svg>
