<svg width="481" height="1227" viewBox="0 0 481 1227" fill="none" xmlns="http://www.w3.org/2000/svg">
<path d="M468.534 697.797C498.66 600.495 465.938 519.033 446.379 488.196C399.864 414.81 360.267 393.896 314.242 364.311C275.759 339.536 221.892 332.032 175.932 288.19C175.693 287.965 175.455 287.74 175.216 287.515C174.978 287.29 174.739 287.065 174.501 286.84C128.007 243.575 118.324 191.179 91.6039 154.462C59.6725 110.569 36.8383 72.6378 -39.8572 29.8911C-72.0859 11.9162 -156.519 -17.0468 -254.802 16.0135C-390.221 61.5546 -413.255 177.56 -532.542 364.805C-643.056 538.616 -746.742 623.509 -762.809 742.214C-778.875 860.919 -738.449 970.199 -617.463 1088.55C-616.839 1089.14 -616.214 1089.77 -615.608 1090.37C-614.984 1090.96 -614.324 1091.55 -613.682 1092.12C-488.266 1205.98 -375.165 1241.44 -254.477 1221.34C-133.808 1201.23 -50.9319 1096.73 122.526 982.244C309.419 858.686 427.036 831.865 468.534 697.797Z" fill="#F18184"/>
</svg>
